<?xml version="1.0" encoding="UTF-8" standalone="no"?>
<!DOCTYPE svg PUBLIC "-//W3C//DTD SVG 1.1//EN" "http://www.w3.org/Graphics/SVG/1.1/DTD/svg11.dtd">
<svg width="100%" height="100%" viewBox="0 0 100 100" version="1.1" xmlns="http://www.w3.org/2000/svg" xmlns:xlink="http://www.w3.org/1999/xlink" xml:space="preserve" xmlns:serif="http://www.serif.com/" style="fill-rule:evenodd;clip-rule:evenodd;stroke-linecap:round;stroke-linejoin:round;stroke-miterlimit:1.5;">
    <g transform="matrix(1,0,0,1,-113,-342)">
        <g id="Hills" transform="matrix(1.0101,0,0,0.75188,110.98,81.8496)">
            <rect x="2" y="346" width="99" height="133" style="fill:none;"/>
            <clipPath id="_clip1">
                <rect x="2" y="346" width="99" height="133"/>
            </clipPath>
            <g clip-path="url(#_clip1)">
                <g id="Back-Hills" serif:id="Back Hills" transform="matrix(0.99,0,0,1.33,0.02,-114.18)">
                    <rect x="-6" y="344" width="120" height="52" style="fill:rgb(242,247,255);"/>
                    <path d="M-7,376C-3.219,366.043 13.667,365.667 23,365C31.952,364.361 40.193,370.27 49,372C52.49,372.685 65.173,373.182 68.937,373.623C75.241,374.362 87.772,375.946 94,377C104.833,378.833 111.713,376.426 114,383C118,394.5 130.667,434.5 118,446C105.333,457.5 58.833,452.333 38,452C22.767,451.756 0.5,456.667 -7,444C-14.5,431.333 -12,389.167 -7,376Z" style="fill:rgb(242,249,216);stroke:black;stroke-width:1px;"/>
                    <g transform="matrix(1.19427,0,0,0.669271,-1.81259,102.902)">
                        <g transform="matrix(1,0,0,1.125,-5.33733,-46.6308)">
                            <path d="M16.76,405.845C16.76,405.379 17.092,405 17.5,405C17.908,405 18.24,405.379 18.24,405.845C18.444,405.441 18.896,405.303 19.25,405.536C19.604,405.769 19.725,406.287 19.521,406.691C19.874,406.457 20.327,406.596 20.531,407C20.735,407.404 20.614,407.921 20.26,408.155C20.669,408.155 21,408.533 21,409C21,409.467 20.669,409.845 20.26,409.845C20.614,410.079 20.735,410.596 20.531,411C20.327,411.404 19.874,411.543 19.521,411.309C19.725,411.713 19.604,412.231 19.25,412.464C18.896,412.697 18.444,412.559 18.24,412.155C18.24,412.621 17.908,413 17.5,413C17.092,413 16.76,412.621 16.76,412.155C16.556,412.559 16.104,412.697 15.75,412.464C15.396,412.231 15.275,411.713 15.479,411.309C15.126,411.543 14.673,411.404 14.469,411C14.265,410.596 14.386,410.079 14.74,409.845C14.331,409.845 14,409.467 14,409C14,408.533 14.331,408.155 14.74,408.155C14.386,407.921 14.265,407.404 14.469,407C14.673,406.596 15.126,406.457 15.479,406.691C15.275,406.287 15.396,405.769 15.75,405.536C16.104,405.303 16.556,405.441 16.76,405.845Z" style="fill:rgb(185,211,68);stroke:black;stroke-width:0.5px;"/>
                        </g>
                        <g transform="matrix(1.33333,0,0,2.3,-89.7401,-422.615)">
                            <ellipse cx="81" cy="363.5" rx="3" ry="2.5" style="fill:rgb(205,228,100);stroke:black;stroke-width:0.32px;"/>
                        </g>
                        <g transform="matrix(1,0,0,1.125,-3,-43.625)">
                            <path d="M16.76,405.845C16.76,405.379 17.092,405 17.5,405C17.908,405 18.24,405.379 18.24,405.845C18.444,405.441 18.896,405.303 19.25,405.536C19.604,405.769 19.725,406.287 19.521,406.691C19.874,406.457 20.327,406.596 20.531,407C20.735,407.404 20.614,407.921 20.26,408.155C20.669,408.155 21,408.533 21,409C21,409.467 20.669,409.845 20.26,409.845C20.614,410.079 20.735,410.596 20.531,411C20.327,411.404 19.874,411.543 19.521,411.309C19.725,411.713 19.604,412.231 19.25,412.464C18.896,412.697 18.444,412.559 18.24,412.155C18.24,412.621 17.908,413 17.5,413C17.092,413 16.76,412.621 16.76,412.155C16.556,412.559 16.104,412.697 15.75,412.464C15.396,412.231 15.275,411.713 15.479,411.309C15.126,411.543 14.673,411.404 14.469,411C14.265,410.596 14.386,410.079 14.74,409.845C14.331,409.845 14,409.467 14,409C14,408.533 14.331,408.155 14.74,408.155C14.386,407.921 14.265,407.404 14.469,407C14.673,406.596 15.126,406.457 15.479,406.691C15.275,406.287 15.396,405.769 15.75,405.536C16.104,405.303 16.556,405.441 16.76,405.845Z" style="fill:rgb(160,186,45);stroke:black;stroke-width:0.5px;"/>
                        </g>
                        <g transform="matrix(1.53559,0,0,1.63424,9.89052,-252.933)">
                            <path d="M16.76,405.845C16.76,405.379 17.092,405 17.5,405C17.908,405 18.24,405.379 18.24,405.845C18.444,405.441 18.896,405.303 19.25,405.536C19.604,405.769 19.725,406.287 19.521,406.691C19.874,406.457 20.327,406.596 20.531,407C20.735,407.404 20.614,407.921 20.26,408.155C20.669,408.155 21,408.533 21,409C21,409.467 20.669,409.845 20.26,409.845C20.614,410.079 20.735,410.596 20.531,411C20.327,411.404 19.874,411.543 19.521,411.309C19.725,411.713 19.604,412.231 19.25,412.464C18.896,412.697 18.444,412.559 18.24,412.155C18.24,412.621 17.908,413 17.5,413C17.092,413 16.76,412.621 16.76,412.155C16.556,412.559 16.104,412.697 15.75,412.464C15.396,412.231 15.275,411.713 15.479,411.309C15.126,411.543 14.673,411.404 14.469,411C14.265,410.596 14.386,410.079 14.74,409.845C14.331,409.845 14,409.467 14,409C14,408.533 14.331,408.155 14.74,408.155C14.386,407.921 14.265,407.404 14.469,407C14.673,406.596 15.126,406.457 15.479,406.691C15.275,406.287 15.396,405.769 15.75,405.536C16.104,405.303 16.556,405.441 16.76,405.845Z" style="fill:rgb(160,186,45);stroke:black;stroke-width:0.33px;"/>
                        </g>
                        <g transform="matrix(1,0,0,2.1605,-58,-370.744)">
                            <ellipse cx="81" cy="363.5" rx="3" ry="2.5" style="fill:rgb(160,186,45);stroke:black;stroke-width:0.38px;"/>
                        </g>
                        <g transform="matrix(1,0,0,1.125,16,-44.625)">
                            <path d="M16.76,405.845C16.76,405.379 17.092,405 17.5,405C17.908,405 18.24,405.379 18.24,405.845C18.444,405.441 18.896,405.303 19.25,405.536C19.604,405.769 19.725,406.287 19.521,406.691C19.874,406.457 20.327,406.596 20.531,407C20.735,407.404 20.614,407.921 20.26,408.155C20.669,408.155 21,408.533 21,409C21,409.467 20.669,409.845 20.26,409.845C20.614,410.079 20.735,410.596 20.531,411C20.327,411.404 19.874,411.543 19.521,411.309C19.725,411.713 19.604,412.231 19.25,412.464C18.896,412.697 18.444,412.559 18.24,412.155C18.24,412.621 17.908,413 17.5,413C17.092,413 16.76,412.621 16.76,412.155C16.556,412.559 16.104,412.697 15.75,412.464C15.396,412.231 15.275,411.713 15.479,411.309C15.126,411.543 14.673,411.404 14.469,411C14.265,410.596 14.386,410.079 14.74,409.845C14.331,409.845 14,409.467 14,409C14,408.533 14.331,408.155 14.74,408.155C14.386,407.921 14.265,407.404 14.469,407C14.673,406.596 15.126,406.457 15.479,406.691C15.275,406.287 15.396,405.769 15.75,405.536C16.104,405.303 16.556,405.441 16.76,405.845Z" style="fill:rgb(185,211,68);stroke:black;stroke-width:0.5px;"/>
                        </g>
                        <g transform="matrix(1.07287,0,0,1.67516,9.4798,-271.154)">
                            <path d="M16.76,405.845C16.76,405.379 17.092,405 17.5,405C17.908,405 18.24,405.379 18.24,405.845C18.444,405.441 18.896,405.303 19.25,405.536C19.604,405.769 19.725,406.287 19.521,406.691C19.874,406.457 20.327,406.596 20.531,407C20.735,407.404 20.614,407.921 20.26,408.155C20.669,408.155 21,408.533 21,409C21,409.467 20.669,409.845 20.26,409.845C20.614,410.079 20.735,410.596 20.531,411C20.327,411.404 19.874,411.543 19.521,411.309C19.725,411.713 19.604,412.231 19.25,412.464C18.896,412.697 18.444,412.559 18.24,412.155C18.24,412.621 17.908,413 17.5,413C17.092,413 16.76,412.621 16.76,412.155C16.556,412.559 16.104,412.697 15.75,412.464C15.396,412.231 15.275,411.713 15.479,411.309C15.126,411.543 14.673,411.404 14.469,411C14.265,410.596 14.386,410.079 14.74,409.845C14.331,409.845 14,409.467 14,409C14,408.533 14.331,408.155 14.74,408.155C14.386,407.921 14.265,407.404 14.469,407C14.673,406.596 15.126,406.457 15.479,406.691C15.275,406.287 15.396,405.769 15.75,405.536C16.104,405.303 16.556,405.441 16.76,405.845Z" style="fill:rgb(185,211,68);stroke:black;stroke-width:0.42px;"/>
                        </g>
                        <g transform="matrix(1,0,0,1.125,-10.8076,-44.625)">
                            <path d="M16.76,405.845C16.76,405.379 17.092,405 17.5,405C17.908,405 18.24,405.379 18.24,405.845C18.444,405.441 18.896,405.303 19.25,405.536C19.604,405.769 19.725,406.287 19.521,406.691C19.874,406.457 20.327,406.596 20.531,407C20.735,407.404 20.614,407.921 20.26,408.155C20.669,408.155 21,408.533 21,409C21,409.467 20.669,409.845 20.26,409.845C20.614,410.079 20.735,410.596 20.531,411C20.327,411.404 19.874,411.543 19.521,411.309C19.725,411.713 19.604,412.231 19.25,412.464C18.896,412.697 18.444,412.559 18.24,412.155C18.24,412.621 17.908,413 17.5,413C17.092,413 16.76,412.621 16.76,412.155C16.556,412.559 16.104,412.697 15.75,412.464C15.396,412.231 15.275,411.713 15.479,411.309C15.126,411.543 14.673,411.404 14.469,411C14.265,410.596 14.386,410.079 14.74,409.845C14.331,409.845 14,409.467 14,409C14,408.533 14.331,408.155 14.74,408.155C14.386,407.921 14.265,407.404 14.469,407C14.673,406.596 15.126,406.457 15.479,406.691C15.275,406.287 15.396,405.769 15.75,405.536C16.104,405.303 16.556,405.441 16.76,405.845Z" style="fill:rgb(160,186,45);stroke:black;stroke-width:0.5px;"/>
                        </g>
                        <g transform="matrix(1.28571,0,0,1.125,3.5,-43.8378)">
                            <path d="M16.76,405.845C16.76,405.379 17.092,405 17.5,405C17.908,405 18.24,405.379 18.24,405.845C18.444,405.441 18.896,405.303 19.25,405.536C19.604,405.769 19.725,406.287 19.521,406.691C19.874,406.457 20.327,406.596 20.531,407C20.735,407.404 20.614,407.921 20.26,408.155C20.669,408.155 21,408.533 21,409C21,409.467 20.669,409.845 20.26,409.845C20.614,410.079 20.735,410.596 20.531,411C20.327,411.404 19.874,411.543 19.521,411.309C19.725,411.713 19.604,412.231 19.25,412.464C18.896,412.697 18.444,412.559 18.24,412.155C18.24,412.621 17.908,413 17.5,413C17.092,413 16.76,412.621 16.76,412.155C16.556,412.559 16.104,412.697 15.75,412.464C15.396,412.231 15.275,411.713 15.479,411.309C15.126,411.543 14.673,411.404 14.469,411C14.265,410.596 14.386,410.079 14.74,409.845C14.331,409.845 14,409.467 14,409C14,408.533 14.331,408.155 14.74,408.155C14.386,407.921 14.265,407.404 14.469,407C14.673,406.596 15.126,406.457 15.479,406.691C15.275,406.287 15.396,405.769 15.75,405.536C16.104,405.303 16.556,405.441 16.76,405.845Z" style="fill:rgb(160,186,45);stroke:black;stroke-width:0.41px;"/>
                        </g>
                    </g>
                    <g transform="matrix(1,0,0,1,-6,-43.4842)">
                        <g transform="matrix(1,0,0,1.4,6,-98.9158)">
                            <ellipse cx="81" cy="363.5" rx="3" ry="2.5" style="fill:rgb(163,194,85);stroke:black;stroke-width:0.41px;"/>
                        </g>
                        <g transform="matrix(1,0,0,1.4,11,-98.9158)">
                            <ellipse cx="81" cy="363.5" rx="3" ry="2.5" style="fill:rgb(189,217,116);stroke:black;stroke-width:0.41px;"/>
                        </g>
                        <g transform="matrix(1,0,0,1.4,-2,-96.9158)">
                            <ellipse cx="81" cy="363.5" rx="3" ry="2.5" style="fill:rgb(163,194,85);stroke:black;stroke-width:0.41px;"/>
                        </g>
                        <g transform="matrix(1.2813,0,0,1.12114,60.0927,-47.5768)">
                            <path d="M16.76,405.845C16.76,405.379 17.092,405 17.5,405C17.908,405 18.24,405.379 18.24,405.845C18.444,405.441 18.896,405.303 19.25,405.536C19.604,405.769 19.725,406.287 19.521,406.691C19.874,406.457 20.327,406.596 20.531,407C20.735,407.404 20.614,407.921 20.26,408.155C20.669,408.155 21,408.533 21,409C21,409.467 20.669,409.845 20.26,409.845C20.614,410.079 20.735,410.596 20.531,411C20.327,411.404 19.874,411.543 19.521,411.309C19.725,411.713 19.604,412.231 19.25,412.464C18.896,412.697 18.444,412.559 18.24,412.155C18.24,412.621 17.908,413 17.5,413C17.092,413 16.76,412.621 16.76,412.155C16.556,412.559 16.104,412.697 15.75,412.464C15.396,412.231 15.275,411.713 15.479,411.309C15.126,411.543 14.673,411.404 14.469,411C14.265,410.596 14.386,410.079 14.74,409.845C14.331,409.845 14,409.467 14,409C14,408.533 14.331,408.155 14.74,408.155C14.386,407.921 14.265,407.404 14.469,407C14.673,406.596 15.126,406.457 15.479,406.691C15.275,406.287 15.396,405.769 15.75,405.536C16.104,405.303 16.556,405.441 16.76,405.845Z" style="fill:rgb(185,211,68);stroke:black;stroke-width:0.42px;"/>
                        </g>
                    </g>
                    <path d="M-11.733,391C-11.544,384.075 0.172,383.169 7,382C14.789,380.667 28,383.5 35,383C39.841,382.654 44.47,380.742 49,379C55.5,376.5 66.5,369.5 74,368C80.57,366.686 87.575,368.102 94,370C101.333,372.167 115.555,372.546 118,381C122,394.833 136.833,440.667 118,453C99.167,465.333 26.622,465.333 5,455C-14.895,445.492 -12.067,403.167 -11.733,391Z" style="fill:rgb(222,240,141);stroke:black;stroke-width:1px;"/>
                    <g>
                        <g transform="matrix(1,0,0,1.4,7,-101.4)">
                            <ellipse cx="81" cy="363.5" rx="3" ry="2.5" style="fill:rgb(129,151,29);stroke:black;stroke-width:0.41px;"/>
                        </g>
                        <g transform="matrix(1,0,0,1.4,2,-99.7025)">
                            <ellipse cx="81" cy="363.5" rx="3" ry="2.5" style="fill:rgb(92,109,18);stroke:black;stroke-width:0.41px;"/>
                        </g>
                        <g transform="matrix(1,0,0,1.4,11,-98.9158)">
                            <ellipse cx="81" cy="363.5" rx="3" ry="2.5" style="fill:rgb(160,186,45);stroke:black;stroke-width:0.41px;"/>
                        </g>
                    </g>
                    <g>
                        <g transform="matrix(1,0,0,1.125,-4.5,-48.125)">
                            <path d="M16.76,405.845C16.76,405.379 17.092,405 17.5,405C17.908,405 18.24,405.379 18.24,405.845C18.444,405.441 18.896,405.303 19.25,405.536C19.604,405.769 19.725,406.287 19.521,406.691C19.874,406.457 20.327,406.596 20.531,407C20.735,407.404 20.614,407.921 20.26,408.155C20.669,408.155 21,408.533 21,409C21,409.467 20.669,409.845 20.26,409.845C20.614,410.079 20.735,410.596 20.531,411C20.327,411.404 19.874,411.543 19.521,411.309C19.725,411.713 19.604,412.231 19.25,412.464C18.896,412.697 18.444,412.559 18.24,412.155C18.24,412.621 17.908,413 17.5,413C17.092,413 16.76,412.621 16.76,412.155C16.556,412.559 16.104,412.697 15.75,412.464C15.396,412.231 15.275,411.713 15.479,411.309C15.126,411.543 14.673,411.404 14.469,411C14.265,410.596 14.386,410.079 14.74,409.845C14.331,409.845 14,409.467 14,409C14,408.533 14.331,408.155 14.74,408.155C14.386,407.921 14.265,407.404 14.469,407C14.673,406.596 15.126,406.457 15.479,406.691C15.275,406.287 15.396,405.769 15.75,405.536C16.104,405.303 16.556,405.441 16.76,405.845Z" style="fill:rgb(129,151,29);stroke:black;stroke-width:0.47px;"/>
                        </g>
                        <g transform="matrix(1.33333,0,0,2.3,-71,-421.8)">
                            <ellipse cx="81" cy="363.5" rx="3" ry="2.5" style="fill:rgb(205,228,100);stroke:black;stroke-width:0.27px;"/>
                        </g>
                        <g transform="matrix(1,0,0,1.125,-3,-43.625)">
                            <path d="M16.76,405.845C16.76,405.379 17.092,405 17.5,405C17.908,405 18.24,405.379 18.24,405.845C18.444,405.441 18.896,405.303 19.25,405.536C19.604,405.769 19.725,406.287 19.521,406.691C19.874,406.457 20.327,406.596 20.531,407C20.735,407.404 20.614,407.921 20.26,408.155C20.669,408.155 21,408.533 21,409C21,409.467 20.669,409.845 20.26,409.845C20.614,410.079 20.735,410.596 20.531,411C20.327,411.404 19.874,411.543 19.521,411.309C19.725,411.713 19.604,412.231 19.25,412.464C18.896,412.697 18.444,412.559 18.24,412.155C18.24,412.621 17.908,413 17.5,413C17.092,413 16.76,412.621 16.76,412.155C16.556,412.559 16.104,412.697 15.75,412.464C15.396,412.231 15.275,411.713 15.479,411.309C15.126,411.543 14.673,411.404 14.469,411C14.265,410.596 14.386,410.079 14.74,409.845C14.331,409.845 14,409.467 14,409C14,408.533 14.331,408.155 14.74,408.155C14.386,407.921 14.265,407.404 14.469,407C14.673,406.596 15.126,406.457 15.479,406.691C15.275,406.287 15.396,405.769 15.75,405.536C16.104,405.303 16.556,405.441 16.76,405.845Z" style="fill:rgb(92,109,18);stroke:black;stroke-width:0.47px;"/>
                        </g>
                        <g transform="matrix(1.14286,0,0,1.125,10.5,-49.125)">
                            <path d="M16.76,405.845C16.76,405.379 17.092,405 17.5,405C17.908,405 18.24,405.379 18.24,405.845C18.444,405.441 18.896,405.303 19.25,405.536C19.604,405.769 19.725,406.287 19.521,406.691C19.874,406.457 20.327,406.596 20.531,407C20.735,407.404 20.614,407.921 20.26,408.155C20.669,408.155 21,408.533 21,409C21,409.467 20.669,409.845 20.26,409.845C20.614,410.079 20.735,410.596 20.531,411C20.327,411.404 19.874,411.543 19.521,411.309C19.725,411.713 19.604,412.231 19.25,412.464C18.896,412.697 18.444,412.559 18.24,412.155C18.24,412.621 17.908,413 17.5,413C17.092,413 16.76,412.621 16.76,412.155C16.556,412.559 16.104,412.697 15.75,412.464C15.396,412.231 15.275,411.713 15.479,411.309C15.126,411.543 14.673,411.404 14.469,411C14.265,410.596 14.386,410.079 14.74,409.845C14.331,409.845 14,409.467 14,409C14,408.533 14.331,408.155 14.74,408.155C14.386,407.921 14.265,407.404 14.469,407C14.673,406.596 15.126,406.457 15.479,406.691C15.275,406.287 15.396,405.769 15.75,405.536C16.104,405.303 16.556,405.441 16.76,405.845Z" style="fill:rgb(92,109,18);stroke:black;stroke-width:0.44px;"/>
                        </g>
                        <g transform="matrix(1,0,0,1.4,-58,-96.2025)">
                            <ellipse cx="81" cy="363.5" rx="3" ry="2.5" style="fill:rgb(160,186,45);stroke:black;stroke-width:0.41px;"/>
                        </g>
                        <g transform="matrix(1,0,0,1.125,16,-44.625)">
                            <path d="M16.76,405.845C16.76,405.379 17.092,405 17.5,405C17.908,405 18.24,405.379 18.24,405.845C18.444,405.441 18.896,405.303 19.25,405.536C19.604,405.769 19.725,406.287 19.521,406.691C19.874,406.457 20.327,406.596 20.531,407C20.735,407.404 20.614,407.921 20.26,408.155C20.669,408.155 21,408.533 21,409C21,409.467 20.669,409.845 20.26,409.845C20.614,410.079 20.735,410.596 20.531,411C20.327,411.404 19.874,411.543 19.521,411.309C19.725,411.713 19.604,412.231 19.25,412.464C18.896,412.697 18.444,412.559 18.24,412.155C18.24,412.621 17.908,413 17.5,413C17.092,413 16.76,412.621 16.76,412.155C16.556,412.559 16.104,412.697 15.75,412.464C15.396,412.231 15.275,411.713 15.479,411.309C15.126,411.543 14.673,411.404 14.469,411C14.265,410.596 14.386,410.079 14.74,409.845C14.331,409.845 14,409.467 14,409C14,408.533 14.331,408.155 14.74,408.155C14.386,407.921 14.265,407.404 14.469,407C14.673,406.596 15.126,406.457 15.479,406.691C15.275,406.287 15.396,405.769 15.75,405.536C16.104,405.303 16.556,405.441 16.76,405.845Z" style="fill:rgb(129,151,29);stroke:black;stroke-width:0.47px;"/>
                        </g>
                        <g transform="matrix(1.28571,0,0,1.125,5,-44.625)">
                            <path d="M16.76,405.845C16.76,405.379 17.092,405 17.5,405C17.908,405 18.24,405.379 18.24,405.845C18.444,405.441 18.896,405.303 19.25,405.536C19.604,405.769 19.725,406.287 19.521,406.691C19.874,406.457 20.327,406.596 20.531,407C20.735,407.404 20.614,407.921 20.26,408.155C20.669,408.155 21,408.533 21,409C21,409.467 20.669,409.845 20.26,409.845C20.614,410.079 20.735,410.596 20.531,411C20.327,411.404 19.874,411.543 19.521,411.309C19.725,411.713 19.604,412.231 19.25,412.464C18.896,412.697 18.444,412.559 18.24,412.155C18.24,412.621 17.908,413 17.5,413C17.092,413 16.76,412.621 16.76,412.155C16.556,412.559 16.104,412.697 15.75,412.464C15.396,412.231 15.275,411.713 15.479,411.309C15.126,411.543 14.673,411.404 14.469,411C14.265,410.596 14.386,410.079 14.74,409.845C14.331,409.845 14,409.467 14,409C14,408.533 14.331,408.155 14.74,408.155C14.386,407.921 14.265,407.404 14.469,407C14.673,406.596 15.126,406.457 15.479,406.691C15.275,406.287 15.396,405.769 15.75,405.536C16.104,405.303 16.556,405.441 16.76,405.845Z" style="fill:rgb(129,151,29);stroke:black;stroke-width:0.41px;"/>
                        </g>
                        <g transform="matrix(1,0,0,1.125,-8,-41.6225)">
                            <path d="M16.76,405.845C16.76,405.379 17.092,405 17.5,405C17.908,405 18.24,405.379 18.24,405.845C18.444,405.441 18.896,405.303 19.25,405.536C19.604,405.769 19.725,406.287 19.521,406.691C19.874,406.457 20.327,406.596 20.531,407C20.735,407.404 20.614,407.921 20.26,408.155C20.669,408.155 21,408.533 21,409C21,409.467 20.669,409.845 20.26,409.845C20.614,410.079 20.735,410.596 20.531,411C20.327,411.404 19.874,411.543 19.521,411.309C19.725,411.713 19.604,412.231 19.25,412.464C18.896,412.697 18.444,412.559 18.24,412.155C18.24,412.621 17.908,413 17.5,413C17.092,413 16.76,412.621 16.76,412.155C16.556,412.559 16.104,412.697 15.75,412.464C15.396,412.231 15.275,411.713 15.479,411.309C15.126,411.543 14.673,411.404 14.469,411C14.265,410.596 14.386,410.079 14.74,409.845C14.331,409.845 14,409.467 14,409C14,408.533 14.331,408.155 14.74,408.155C14.386,407.921 14.265,407.404 14.469,407C14.673,406.596 15.126,406.457 15.479,406.691C15.275,406.287 15.396,405.769 15.75,405.536C16.104,405.303 16.556,405.441 16.76,405.845Z" style="fill:rgb(129,151,29);stroke:black;stroke-width:0.47px;"/>
                        </g>
                        <g transform="matrix(1.28571,0,0,1.125,-2.5,-44.625)">
                            <path d="M16.76,405.845C16.76,405.379 17.092,405 17.5,405C17.908,405 18.24,405.379 18.24,405.845C18.444,405.441 18.896,405.303 19.25,405.536C19.604,405.769 19.725,406.287 19.521,406.691C19.874,406.457 20.327,406.596 20.531,407C20.735,407.404 20.614,407.921 20.26,408.155C20.669,408.155 21,408.533 21,409C21,409.467 20.669,409.845 20.26,409.845C20.614,410.079 20.735,410.596 20.531,411C20.327,411.404 19.874,411.543 19.521,411.309C19.725,411.713 19.604,412.231 19.25,412.464C18.896,412.697 18.444,412.559 18.24,412.155C18.24,412.621 17.908,413 17.5,413C17.092,413 16.76,412.621 16.76,412.155C16.556,412.559 16.104,412.697 15.75,412.464C15.396,412.231 15.275,411.713 15.479,411.309C15.126,411.543 14.673,411.404 14.469,411C14.265,410.596 14.386,410.079 14.74,409.845C14.331,409.845 14,409.467 14,409C14,408.533 14.331,408.155 14.74,408.155C14.386,407.921 14.265,407.404 14.469,407C14.673,406.596 15.126,406.457 15.479,406.691C15.275,406.287 15.396,405.769 15.75,405.536C16.104,405.303 16.556,405.441 16.76,405.845Z" style="fill:rgb(129,151,29);stroke:black;stroke-width:0.41px;"/>
                        </g>
                    </g>
                    <path d="M-3,422C5.167,418.833 28.167,418 41,416C52.047,414.278 62.824,409.681 74,410C85.667,410.333 103.167,411.667 111,418C118.833,424.333 130.597,443.639 121,448C108,453.907 54.5,455.61 33,453.443C25.225,452.66 3.86,455.103 -4,451.135C-11.212,447.494 -5.129,437.508 -8,435C-11.497,431.946 -7.329,423.679 -3,422Z" style="fill:rgb(160,186,45);stroke:black;stroke-width:1px;"/>
                    <g transform="matrix(1.22731,0,0,1.22731,50.2837,-84.1518)">
                        <g transform="matrix(1.22218,0,0,1.62958,-115.116,-175.736)">
                            <ellipse cx="81" cy="363.5" rx="3" ry="2.5" style="fill:rgb(92,109,18);stroke:black;stroke-width:0.28px;"/>
                        </g>
                        <g transform="matrix(1,0,0,1.125,-4.5,-48.125)">
                            <path d="M16.76,405.845C16.76,405.379 17.092,405 17.5,405C17.908,405 18.24,405.379 18.24,405.845C18.444,405.441 18.896,405.303 19.25,405.536C19.604,405.769 19.725,406.287 19.521,406.691C19.874,406.457 20.327,406.596 20.531,407C20.735,407.404 20.614,407.921 20.26,408.155C20.669,408.155 21,408.533 21,409C21,409.467 20.669,409.845 20.26,409.845C20.614,410.079 20.735,410.596 20.531,411C20.327,411.404 19.874,411.543 19.521,411.309C19.725,411.713 19.604,412.231 19.25,412.464C18.896,412.697 18.444,412.559 18.24,412.155C18.24,412.621 17.908,413 17.5,413C17.092,413 16.76,412.621 16.76,412.155C16.556,412.559 16.104,412.697 15.75,412.464C15.396,412.231 15.275,411.713 15.479,411.309C15.126,411.543 14.673,411.404 14.469,411C14.265,410.596 14.386,410.079 14.74,409.845C14.331,409.845 14,409.467 14,409C14,408.533 14.331,408.155 14.74,408.155C14.386,407.921 14.265,407.404 14.469,407C14.673,406.596 15.126,406.457 15.479,406.691C15.275,406.287 15.396,405.769 15.75,405.536C16.104,405.303 16.556,405.441 16.76,405.845Z" style="fill:rgb(129,151,29);stroke:black;stroke-width:0.38px;"/>
                        </g>
                        <g transform="matrix(1.33333,0,0,2.3,-89.7401,-422.615)">
                            <ellipse cx="81" cy="363.5" rx="3" ry="2.5" style="fill:rgb(205,228,100);stroke:black;stroke-width:0.22px;"/>
                        </g>
                        <g transform="matrix(1,0,0,1.125,-3,-43.625)">
                            <path d="M16.76,405.845C16.76,405.379 17.092,405 17.5,405C17.908,405 18.24,405.379 18.24,405.845C18.444,405.441 18.896,405.303 19.25,405.536C19.604,405.769 19.725,406.287 19.521,406.691C19.874,406.457 20.327,406.596 20.531,407C20.735,407.404 20.614,407.921 20.26,408.155C20.669,408.155 21,408.533 21,409C21,409.467 20.669,409.845 20.26,409.845C20.614,410.079 20.735,410.596 20.531,411C20.327,411.404 19.874,411.543 19.521,411.309C19.725,411.713 19.604,412.231 19.25,412.464C18.896,412.697 18.444,412.559 18.24,412.155C18.24,412.621 17.908,413 17.5,413C17.092,413 16.76,412.621 16.76,412.155C16.556,412.559 16.104,412.697 15.75,412.464C15.396,412.231 15.275,411.713 15.479,411.309C15.126,411.543 14.673,411.404 14.469,411C14.265,410.596 14.386,410.079 14.74,409.845C14.331,409.845 14,409.467 14,409C14,408.533 14.331,408.155 14.74,408.155C14.386,407.921 14.265,407.404 14.469,407C14.673,406.596 15.126,406.457 15.479,406.691C15.275,406.287 15.396,405.769 15.75,405.536C16.104,405.303 16.556,405.441 16.76,405.845Z" style="fill:rgb(92,109,18);stroke:black;stroke-width:0.38px;"/>
                        </g>
                        <g transform="matrix(1.53559,0,0,1.63424,9.89052,-252.933)">
                            <path d="M16.76,405.845C16.76,405.379 17.092,405 17.5,405C17.908,405 18.24,405.379 18.24,405.845C18.444,405.441 18.896,405.303 19.25,405.536C19.604,405.769 19.725,406.287 19.521,406.691C19.874,406.457 20.327,406.596 20.531,407C20.735,407.404 20.614,407.921 20.26,408.155C20.669,408.155 21,408.533 21,409C21,409.467 20.669,409.845 20.26,409.845C20.614,410.079 20.735,410.596 20.531,411C20.327,411.404 19.874,411.543 19.521,411.309C19.725,411.713 19.604,412.231 19.25,412.464C18.896,412.697 18.444,412.559 18.24,412.155C18.24,412.621 17.908,413 17.5,413C17.092,413 16.76,412.621 16.76,412.155C16.556,412.559 16.104,412.697 15.75,412.464C15.396,412.231 15.275,411.713 15.479,411.309C15.126,411.543 14.673,411.404 14.469,411C14.265,410.596 14.386,410.079 14.74,409.845C14.331,409.845 14,409.467 14,409C14,408.533 14.331,408.155 14.74,408.155C14.386,407.921 14.265,407.404 14.469,407C14.673,406.596 15.126,406.457 15.479,406.691C15.275,406.287 15.396,405.769 15.75,405.536C16.104,405.303 16.556,405.441 16.76,405.845Z" style="fill:rgb(92,109,18);stroke:black;stroke-width:0.26px;"/>
                        </g>
                        <g transform="matrix(1,0,0,2.1605,-58,-370.744)">
                            <ellipse cx="81" cy="363.5" rx="3" ry="2.5" style="fill:rgb(160,186,45);stroke:black;stroke-width:0.24px;"/>
                        </g>
                        <g transform="matrix(1,0,0,1.125,16,-44.625)">
                            <path d="M16.76,405.845C16.76,405.379 17.092,405 17.5,405C17.908,405 18.24,405.379 18.24,405.845C18.444,405.441 18.896,405.303 19.25,405.536C19.604,405.769 19.725,406.287 19.521,406.691C19.874,406.457 20.327,406.596 20.531,407C20.735,407.404 20.614,407.921 20.26,408.155C20.669,408.155 21,408.533 21,409C21,409.467 20.669,409.845 20.26,409.845C20.614,410.079 20.735,410.596 20.531,411C20.327,411.404 19.874,411.543 19.521,411.309C19.725,411.713 19.604,412.231 19.25,412.464C18.896,412.697 18.444,412.559 18.24,412.155C18.24,412.621 17.908,413 17.5,413C17.092,413 16.76,412.621 16.76,412.155C16.556,412.559 16.104,412.697 15.75,412.464C15.396,412.231 15.275,411.713 15.479,411.309C15.126,411.543 14.673,411.404 14.469,411C14.265,410.596 14.386,410.079 14.74,409.845C14.331,409.845 14,409.467 14,409C14,408.533 14.331,408.155 14.74,408.155C14.386,407.921 14.265,407.404 14.469,407C14.673,406.596 15.126,406.457 15.479,406.691C15.275,406.287 15.396,405.769 15.75,405.536C16.104,405.303 16.556,405.441 16.76,405.845Z" style="fill:rgb(129,151,29);stroke:black;stroke-width:0.38px;"/>
                        </g>
                        <g transform="matrix(1.28571,0,0,1.67516,6.5,-271.154)">
                            <path d="M16.76,405.845C16.76,405.379 17.092,405 17.5,405C17.908,405 18.24,405.379 18.24,405.845C18.444,405.441 18.896,405.303 19.25,405.536C19.604,405.769 19.725,406.287 19.521,406.691C19.874,406.457 20.327,406.596 20.531,407C20.735,407.404 20.614,407.921 20.26,408.155C20.669,408.155 21,408.533 21,409C21,409.467 20.669,409.845 20.26,409.845C20.614,410.079 20.735,410.596 20.531,411C20.327,411.404 19.874,411.543 19.521,411.309C19.725,411.713 19.604,412.231 19.25,412.464C18.896,412.697 18.444,412.559 18.24,412.155C18.24,412.621 17.908,413 17.5,413C17.092,413 16.76,412.621 16.76,412.155C16.556,412.559 16.104,412.697 15.75,412.464C15.396,412.231 15.275,411.713 15.479,411.309C15.126,411.543 14.673,411.404 14.469,411C14.265,410.596 14.386,410.079 14.74,409.845C14.331,409.845 14,409.467 14,409C14,408.533 14.331,408.155 14.74,408.155C14.386,407.921 14.265,407.404 14.469,407C14.673,406.596 15.126,406.457 15.479,406.691C15.275,406.287 15.396,405.769 15.75,405.536C16.104,405.303 16.556,405.441 16.76,405.845Z" style="fill:rgb(129,151,29);stroke:black;stroke-width:0.27px;"/>
                        </g>
                        <g transform="matrix(1,0,0,1.125,-8,-41.6225)">
                            <path d="M16.76,405.845C16.76,405.379 17.092,405 17.5,405C17.908,405 18.24,405.379 18.24,405.845C18.444,405.441 18.896,405.303 19.25,405.536C19.604,405.769 19.725,406.287 19.521,406.691C19.874,406.457 20.327,406.596 20.531,407C20.735,407.404 20.614,407.921 20.26,408.155C20.669,408.155 21,408.533 21,409C21,409.467 20.669,409.845 20.26,409.845C20.614,410.079 20.735,410.596 20.531,411C20.327,411.404 19.874,411.543 19.521,411.309C19.725,411.713 19.604,412.231 19.25,412.464C18.896,412.697 18.444,412.559 18.24,412.155C18.24,412.621 17.908,413 17.5,413C17.092,413 16.76,412.621 16.76,412.155C16.556,412.559 16.104,412.697 15.75,412.464C15.396,412.231 15.275,411.713 15.479,411.309C15.126,411.543 14.673,411.404 14.469,411C14.265,410.596 14.386,410.079 14.74,409.845C14.331,409.845 14,409.467 14,409C14,408.533 14.331,408.155 14.74,408.155C14.386,407.921 14.265,407.404 14.469,407C14.673,406.596 15.126,406.457 15.479,406.691C15.275,406.287 15.396,405.769 15.75,405.536C16.104,405.303 16.556,405.441 16.76,405.845Z" style="fill:rgb(129,151,29);stroke:black;stroke-width:0.38px;"/>
                        </g>
                        <g transform="matrix(1.28571,0,0,1.125,3.5,-43.8378)">
                            <path d="M16.76,405.845C16.76,405.379 17.092,405 17.5,405C17.908,405 18.24,405.379 18.24,405.845C18.444,405.441 18.896,405.303 19.25,405.536C19.604,405.769 19.725,406.287 19.521,406.691C19.874,406.457 20.327,406.596 20.531,407C20.735,407.404 20.614,407.921 20.26,408.155C20.669,408.155 21,408.533 21,409C21,409.467 20.669,409.845 20.26,409.845C20.614,410.079 20.735,410.596 20.531,411C20.327,411.404 19.874,411.543 19.521,411.309C19.725,411.713 19.604,412.231 19.25,412.464C18.896,412.697 18.444,412.559 18.24,412.155C18.24,412.621 17.908,413 17.5,413C17.092,413 16.76,412.621 16.76,412.155C16.556,412.559 16.104,412.697 15.75,412.464C15.396,412.231 15.275,411.713 15.479,411.309C15.126,411.543 14.673,411.404 14.469,411C14.265,410.596 14.386,410.079 14.74,409.845C14.331,409.845 14,409.467 14,409C14,408.533 14.331,408.155 14.74,408.155C14.386,407.921 14.265,407.404 14.469,407C14.673,406.596 15.126,406.457 15.479,406.691C15.275,406.287 15.396,405.769 15.75,405.536C16.104,405.303 16.556,405.441 16.76,405.845Z" style="fill:rgb(129,151,29);stroke:black;stroke-width:0.34px;"/>
                        </g>
                        <g transform="matrix(1.28571,0,0,1.125,-45.1378,-41.6371)">
                            <path d="M16.76,405.845C16.76,405.379 17.092,405 17.5,405C17.908,405 18.24,405.379 18.24,405.845C18.444,405.441 18.896,405.303 19.25,405.536C19.604,405.769 19.725,406.287 19.521,406.691C19.874,406.457 20.327,406.596 20.531,407C20.735,407.404 20.614,407.921 20.26,408.155C20.669,408.155 21,408.533 21,409C21,409.467 20.669,409.845 20.26,409.845C20.614,410.079 20.735,410.596 20.531,411C20.327,411.404 19.874,411.543 19.521,411.309C19.725,411.713 19.604,412.231 19.25,412.464C18.896,412.697 18.444,412.559 18.24,412.155C18.24,412.621 17.908,413 17.5,413C17.092,413 16.76,412.621 16.76,412.155C16.556,412.559 16.104,412.697 15.75,412.464C15.396,412.231 15.275,411.713 15.479,411.309C15.126,411.543 14.673,411.404 14.469,411C14.265,410.596 14.386,410.079 14.74,409.845C14.331,409.845 14,409.467 14,409C14,408.533 14.331,408.155 14.74,408.155C14.386,407.921 14.265,407.404 14.469,407C14.673,406.596 15.126,406.457 15.479,406.691C15.275,406.287 15.396,405.769 15.75,405.536C16.104,405.303 16.556,405.441 16.76,405.845Z" style="fill:rgb(129,151,29);stroke:black;stroke-width:0.34px;"/>
                        </g>
                    </g>
                    <g transform="matrix(1,0,0,1,-0.265444,4)">
                        <path d="M-11,432.165C-0.083,427.332 34,424.194 50.5,423C62.985,422.096 77.417,424 88,425C96.73,425.825 109.667,424.109 114,429C118.333,433.891 122.185,452.25 114,454.346C97.5,458.57 36.5,454.737 15,454.346C4.971,454.163 -10.667,455.697 -15,452C-19.333,448.303 -17.167,434.896 -11,432.165Z" style="fill:rgb(129,151,29);stroke:black;stroke-width:1px;"/>
                    </g>
                </g>
            </g>
        </g>
    </g>
</svg>
