<?xml version="1.0" encoding="UTF-8" standalone="no"?>
<!DOCTYPE svg PUBLIC "-//W3C//DTD SVG 1.1//EN" "http://www.w3.org/Graphics/SVG/1.1/DTD/svg11.dtd">
<svg width="100%" height="100%" viewBox="0 0 100 100" version="1.1" xmlns="http://www.w3.org/2000/svg" xmlns:xlink="http://www.w3.org/1999/xlink" xml:space="preserve" xmlns:serif="http://www.serif.com/" style="fill-rule:evenodd;clip-rule:evenodd;stroke-linecap:round;stroke-linejoin:round;stroke-miterlimit:1.5;">
    <g transform="matrix(1,0,0,1,-145,0)">
        <g id="Homebase" transform="matrix(0.680272,0,0,1.1236,81.0544,-75.2809)">
            <rect x="94" y="67" width="147" height="89" style="fill:none;"/>
            <clipPath id="_clip1">
                <rect x="94" y="67" width="147" height="89"/>
            </clipPath>
            <g clip-path="url(#_clip1)">
                <g id="Background" transform="matrix(1.47,0,0,0.89,94,67)">
                    <rect x="-3" y="-2" width="111" height="60" style="fill:rgb(227,234,246);"/>
                    <g transform="matrix(1.52632,0,0,1.70588,-34.0526,-30.6176)">
                        <path d="M47.492,21.796C47.492,20.805 48.392,20 49.5,20C50.608,20 51.508,20.805 51.508,21.796C52.062,20.938 53.29,20.643 54.25,21.139C55.21,21.634 55.539,22.734 54.985,23.593C55.944,23.097 57.173,23.391 57.727,24.25C58.281,25.109 57.952,26.208 56.992,26.704C58.1,26.704 59,27.509 59,28.5C59,29.491 58.1,30.296 56.992,30.296C57.952,30.792 58.281,31.891 57.727,32.75C57.173,33.609 55.944,33.903 54.985,33.407C55.539,34.266 55.21,35.366 54.25,35.861C53.29,36.357 52.062,36.062 51.508,35.204C51.508,36.195 50.608,37 49.5,37C48.392,37 47.492,36.195 47.492,35.204C46.938,36.062 45.71,36.357 44.75,35.861C43.79,35.366 43.461,34.266 44.015,33.407C43.056,33.903 41.827,33.609 41.273,32.75C40.719,31.891 41.048,30.792 42.008,30.296C40.9,30.296 40,29.491 40,28.5C40,27.509 40.9,26.704 42.008,26.704C41.048,26.208 40.719,25.109 41.273,24.25C41.827,23.391 43.056,23.097 44.015,23.593C43.461,22.734 43.79,21.634 44.75,21.139C45.71,20.643 46.938,20.938 47.492,21.796Z" style="fill:rgb(210,232,155);stroke:rgb(16,28,18);stroke-width:0.62px;"/>
                    </g>
                    <g transform="matrix(1.05714,0,0,1.4,-11.1714,5)">
                        <path d="M86.802,3.698C86.802,1.657 88.459,0 90.5,0C92.541,0 94.198,1.657 94.198,3.698C95.219,1.931 97.482,1.324 99.25,2.345C101.018,3.365 101.624,5.629 100.604,7.396C102.371,6.376 104.635,6.982 105.655,8.75C106.676,10.518 106.069,12.781 104.302,13.802C106.343,13.802 108,15.459 108,17.5C108,19.541 106.343,21.198 104.302,21.198C106.069,22.219 106.676,24.482 105.655,26.25C104.635,28.018 102.371,28.624 100.604,27.604C101.624,29.371 101.018,31.635 99.25,32.655C97.482,33.676 95.219,33.069 94.198,31.302C94.198,33.343 92.541,35 90.5,35C88.459,35 86.802,33.343 86.802,31.302C85.781,33.069 83.518,33.676 81.75,32.655C79.982,31.635 79.376,29.371 80.396,27.604C78.629,28.624 76.365,28.018 75.345,26.25C74.324,24.482 74.931,22.219 76.698,21.198C74.657,21.198 73,19.541 73,17.5C73,15.459 74.657,13.802 76.698,13.802C74.931,12.781 74.324,10.518 75.345,8.75C76.365,6.982 78.629,6.376 80.396,7.396C79.376,5.629 79.982,3.365 81.75,2.345C83.518,1.324 85.781,1.931 86.802,3.698Z" style="fill:rgb(163,194,85);stroke:rgb(16,28,18);stroke-width:0.81px;"/>
                    </g>
                    <g transform="matrix(1,0,0,1,1.42109e-14,-11)">
                        <path d="M56.464,21.853C56.464,20.278 57.6,19 59,19C60.4,19 61.536,20.278 61.536,21.853C62.236,20.489 63.788,20.021 65,20.809C66.212,21.596 66.628,23.342 65.928,24.706C67.14,23.918 68.693,24.386 69.392,25.75C70.092,27.114 69.676,28.86 68.464,29.647C69.864,29.647 71,30.925 71,32.5C71,34.075 69.864,35.353 68.464,35.353C69.676,36.14 70.092,37.886 69.392,39.25C68.693,40.614 67.14,41.082 65.928,40.294C66.628,41.658 66.212,43.404 65,44.191C63.788,44.979 62.236,44.511 61.536,43.147C61.536,44.722 60.4,46 59,46C57.6,46 56.464,44.722 56.464,43.147C55.764,44.511 54.212,44.979 53,44.191C51.788,43.404 51.372,41.658 52.072,40.294C50.86,41.082 49.307,40.614 48.608,39.25C47.908,37.886 48.324,36.14 49.536,35.353C48.136,35.353 47,34.075 47,32.5C47,30.925 48.136,29.647 49.536,29.647C48.324,28.86 47.908,27.114 48.608,25.75C49.307,24.386 50.86,23.918 52.072,24.706C51.372,23.342 51.788,21.596 53,20.809C54.212,20.021 55.764,20.489 56.464,21.853Z" style="fill:rgb(189,217,116);stroke:rgb(16,28,18);stroke-width:1px;"/>
                    </g>
                    <g transform="matrix(1.26667,0,0,1,-29.4667,3.5)">
                        <path d="M78.915,17.325C78.915,16.042 79.625,15 80.5,15C81.375,15 82.085,16.042 82.085,17.325C82.522,16.213 83.492,15.832 84.25,16.474C85.008,17.115 85.268,18.538 84.83,19.649C85.588,19.008 86.558,19.389 86.995,20.5C87.433,21.611 87.173,23.034 86.415,23.675C87.29,23.675 88,24.717 88,26C88,27.283 87.29,28.325 86.415,28.325C87.173,28.966 87.433,30.389 86.995,31.5C86.558,32.611 85.588,32.992 84.83,32.351C85.268,33.462 85.008,34.885 84.25,35.526C83.492,36.168 82.522,35.787 82.085,34.675C82.085,35.958 81.375,37 80.5,37C79.625,37 78.915,35.958 78.915,34.675C78.478,35.787 77.508,36.168 76.75,35.526C75.992,34.885 75.732,33.462 76.17,32.351C75.412,32.992 74.442,32.611 74.005,31.5C73.567,30.389 73.827,28.966 74.585,28.325C73.71,28.325 73,27.283 73,26C73,24.717 73.71,23.675 74.585,23.675C73.827,23.034 73.567,21.611 74.005,20.5C74.442,19.389 75.412,19.008 76.17,19.649C75.732,18.538 75.992,17.115 76.75,16.474C77.508,15.832 78.478,16.213 78.915,17.325Z" style="fill:rgb(189,217,116);stroke:rgb(16,28,18);stroke-width:0.88px;"/>
                    </g>
                </g>
                <g id="Cave" transform="matrix(1.47,0,0,0.89,94,67)">
                    <path id="Entrance" d="M25,78L21,76L24,58L27,57L30,55L31,51L50,54L54,60L58,72L58,79L47,77L25,78Z" style="stroke:rgb(16,28,18);stroke-width:1px;"/>
                    <path d="M7,7.5L24,5L80,32L105,35L104,48L103,54L74,46L56,33L39,28L7,7.5Z" style="fill:rgb(190,208,187);stroke:black;stroke-width:1px;"/>
                    <path d="M-2,51L-3,85L9,84L16,76L14,62L17,55L11,48.5L-2,51Z" style="fill:rgb(126,143,124);stroke:rgb(16,28,18);stroke-width:1px;"/>
                    <path d="M29,43L33,24L39,21L49,27L45,43L29,43Z" style="fill:rgb(161,180,159);stroke:rgb(16,28,18);stroke-width:1px;"/>
                    <path d="M23,58L27,57L23,52L16,51L14,54L10,63L14,70L21,76L23,58Z" style="fill:rgb(91,105,90);stroke:rgb(16,28,18);stroke-width:1px;"/>
                    <path d="M57,68L63,62L70,60L59,51L51,54L55,61L57,68Z" style="fill:rgb(91,105,90);stroke:rgb(16,28,18);stroke-width:1px;"/>
                    <path d="M29,44L20,38L8,42L-1,42L-1,53L8,50L14,54L16,51L23,52L28,57L30,55L31,51L29,44Z" style="fill:rgb(161,180,159);stroke:rgb(16,28,18);stroke-width:1px;"/>
                    <path d="M68,83L58,79L58,72L57,68L63,62L70,60L73,71L68,83Z" style="fill:rgb(91,105,90);stroke:rgb(16,28,18);stroke-width:1px;"/>
                    <path d="M60,33L70,33L75,43L80,45L103,53L103,97L88,90L68,83L64,59L59,53L60,33Z" style="fill:rgb(126,143,124);stroke:rgb(16,28,18);stroke-width:1px;"/>
                    <path d="M31,51L29,43L45,43L58,51L50,54L31,51Z" style="fill:rgb(91,105,90);stroke:rgb(16,28,18);stroke-width:1px;"/>
                    <path d="M45,43L58,51L66,47L64,32L57,30L52,29L49,29L45,43Z" style="fill:rgb(190,208,187);stroke:rgb(16,28,18);stroke-width:1px;"/>
                    <path d="M31,33L24,26L12,26L-1,28L-1,42L8,42L20,38L29,44L31,33Z" style="fill:rgb(190,208,187);stroke:rgb(16,28,18);stroke-width:1px;"/>
                    <path d="M35,22L26,11L14,6L7,-1L-2,-1L-1,28L12,26L31,33L35,22Z" style="fill:rgb(190,208,187);stroke:rgb(16,28,18);stroke-width:1px;"/>
                    <g transform="matrix(1,0,0,1,2,-9)">
                        <path d="M-3,27L-4,43L16,39L29,43.5L32,34L21,27L10.523,24L-3,27Z" style="fill:rgb(161,180,159);stroke:rgb(16,28,18);stroke-width:1px;"/>
                    </g>
                </g>
                <g id="Entrance1" serif:id="Entrance" transform="matrix(1.47,0,0,0.89,94,67)">
                    <path d="M-2,83L26,78L47,77L57,79L82,88L92,92L104,96L103,101L-2,101L-2,83Z" style="fill:rgb(96,118,38);stroke:rgb(16,28,18);stroke-width:1px;"/>
                    <path d="M26,86L26,78L16,72L6,75L2,80L3,86L9,89L21,88L26,86Z" style="fill:rgb(161,180,159);stroke:rgb(16,28,18);stroke-width:1px;"/>
                    <path d="M26,78L22,76L14,80L18,83L18,87L21,88L26,86L26,78Z" style="fill:rgb(126,143,124);stroke:rgb(16,28,18);stroke-width:1px;"/>
                </g>
                <g id="Foreground" transform="matrix(1.47,0,0,0.89,94,67)">
                    <path d="M89.5,28L76,50.5L84,48.5L74,59L83.5,55L72,67L80.5,65L71,77L80.5,73L68,89L79,84L66,102L108,102L94,80.5L107,89L94,73L104,74L94,62L104,64.667L95,56L104,59L93,47L101,50L89.5,28Z" style="fill:rgb(53,66,19);stroke:rgb(16,28,18);stroke-width:1px;"/>
                    <g transform="matrix(1.5,0,0,2,-22.6637,-81.5)">
                        <path d="M42,80L38,82L39,84L40.947,83L43.991,84L45,82L48.036,83L50,85L52,83L51,81L42,80Z" style="fill:rgb(44,40,18);stroke:rgb(16,28,18);stroke-width:0.57px;"/>
                    </g>
                    <g transform="matrix(1.21429,0,0,1.2,-10.1429,-16.5)">
                        <path d="M42,80L38,82L39,84L40.947,83L43.991,84L45,82L48.036,83L50,85L52,83L51,81L42,80Z" style="fill:rgb(240,118,16);stroke:rgb(16,28,18);stroke-width:0.83px;"/>
                    </g>
                    <g transform="matrix(1.45946,0,0,1.45946,-22.2598,-37.9054)">
                        <path d="M42,82C42,82 40.667,77.333 41,75.5C41.322,73.726 43.521,72.596 44,71C44.5,69.333 44,65 44,65C44,65 46.667,70.167 47,72C47.246,73.352 46.152,74.634 46,76C45.833,77.5 46,81 46,81L42,82Z" style="fill:rgb(223,188,22);stroke:rgb(16,28,18);stroke-width:0.69px;"/>
                        <path d="M50,82L46,81C46,81 45.5,77.25 46,76C46.483,74.791 48.354,74.63 49,73.5C49.667,72.333 50,69 50,69C50,69 51,74.833 51,77C51,79.028 50,82 50,82Z" style="fill:rgb(232,194,15);stroke:rgb(16,28,18);stroke-width:0.69px;"/>
                        <g transform="matrix(1,0,0,1,-2.61111,-1)">
                            <path d="M50,82L47,83.5C47,83.5 46.5,77.25 47,76C47.483,74.791 48.354,72.63 49,71.5C49.667,70.333 50.647,65 50.647,65C50.647,65 51,74.833 51,77C51,79.028 50,82 50,82Z" style="fill:rgb(238,164,9);stroke:rgb(16,28,18);stroke-width:0.69px;"/>
                        </g>
                    </g>
                </g>
            </g>
        </g>
    </g>
</svg>
