<?xml version="1.0" encoding="UTF-8" standalone="no"?>
<!DOCTYPE svg PUBLIC "-//W3C//DTD SVG 1.1//EN" "http://www.w3.org/Graphics/SVG/1.1/DTD/svg11.dtd">
<svg width="100%" height="100%" viewBox="0 0 100 100" version="1.1" xmlns="http://www.w3.org/2000/svg" xmlns:xlink="http://www.w3.org/1999/xlink" xml:space="preserve" xmlns:serif="http://www.serif.com/" style="fill-rule:evenodd;clip-rule:evenodd;stroke-linecap:round;stroke-linejoin:round;stroke-miterlimit:1.5;">
    <g transform="matrix(1,0,0,1,-259,-574)">
        <g id="Planes" transform="matrix(1,0,0,1,257,2)">
            <rect x="2" y="572" width="100" height="100" style="fill:none;"/>
            <clipPath id="_clip1">
                <rect x="2" y="572" width="100" height="100"/>
            </clipPath>
            <g clip-path="url(#_clip1)">
                <rect x="-5" y="571" width="116" height="39" style="fill:rgb(242,247,255);"/>
                <rect x="-9" y="606" width="127" height="71" style="fill:rgb(255,255,217);stroke:black;stroke-width:0.5px;"/>
                <path d="M-4,628C2.387,620.667 20.25,627.5 30,627C38.183,626.58 46.306,625 54.5,625C64.333,625 79.083,626.333 89,627C97.341,627.561 109.583,621.902 114,629C118.667,636.5 128.106,662.883 117,672C105.833,681.167 67.887,684.167 47,684C28.059,683.849 0.181,680.333 -8.319,671C-16.819,661.667 -10.387,635.333 -4,628Z" style="fill:rgb(237,247,190);stroke:black;stroke-width:0.5px;"/>
                <path d="M-3,647C5.333,643 27.653,645.155 43,645C59.5,644.833 81.5,644.667 96,646C107.522,647.06 127.5,646.667 130,653C132.5,659.333 122.791,681.197 111,684C90.667,688.833 27.667,684.5 8,682C1.436,681.166 -5.167,674.833 -7,669C-8.833,663.167 -9.72,650.225 -3,647Z" style="fill:rgb(189,217,116);stroke:black;stroke-width:0.5px;"/>
                <g transform="matrix(0.585366,0,0,0.548387,6.92683,303.806)">
                    <path d="M-1.433,655C-1.749,654.717 -2.027,654.382 -2.254,654C-3.449,651.98 -2.738,649.393 -0.668,648.226C-3.059,648.226 -5,646.333 -5,644C-5,641.667 -3.059,639.774 -0.668,639.774C-2.738,638.607 -3.449,636.02 -2.254,634C-1.058,631.98 1.594,631.287 3.664,632.453C2.469,630.433 3.179,627.846 5.25,626.679C7.321,625.513 9.972,626.206 11.168,628.226C11.168,625.894 13.109,624 15.5,624C17.891,624 19.832,625.894 19.832,628.226C21.028,626.206 23.679,625.513 25.75,626.679C27.821,627.846 28.531,630.433 27.336,632.453C29.406,631.287 32.058,631.98 33.254,634C34.449,636.02 33.738,638.607 31.668,639.774C34.059,639.774 36,641.667 36,644C36,646.333 34.059,648.226 31.668,648.226C33.738,649.393 34.449,651.98 33.254,654C33.027,654.382 32.749,654.717 32.433,655L-1.433,655Z" style="fill:rgb(96,118,38);stroke:black;stroke-width:0.88px;"/>
                </g>
                <g transform="matrix(0.390244,0,0,0.290323,76.9512,460.339)">
                    <path d="M-1.433,655C-1.749,654.717 -2.027,654.382 -2.254,654C-3.449,651.98 -2.738,649.393 -0.668,648.226C-3.059,648.226 -5,646.333 -5,644C-5,641.667 -3.059,639.774 -0.668,639.774C-2.738,638.607 -3.449,636.02 -2.254,634C-1.058,631.98 1.594,631.287 3.664,632.453C2.469,630.433 3.179,627.846 5.25,626.679C7.321,625.513 9.972,626.206 11.168,628.226C11.168,625.894 13.109,624 15.5,624C17.891,624 19.832,625.894 19.832,628.226C21.028,626.206 23.679,625.513 25.75,626.679C27.821,627.846 28.531,630.433 27.336,632.453C29.406,631.287 32.058,631.98 33.254,634C34.449,636.02 33.738,638.607 31.668,639.774C34.059,639.774 36,641.667 36,644C36,646.333 34.059,648.226 31.668,648.226C33.738,649.393 34.449,651.98 33.254,654C33.027,654.382 32.749,654.717 32.433,655L-1.433,655Z" style="fill:rgb(96,118,38);stroke:black;stroke-width:1.45px;"/>
                </g>
                <g transform="matrix(0.243902,0,0,0.225806,21.2195,489.097)">
                    <path d="M-1.433,655C-1.749,654.717 -2.027,654.382 -2.254,654C-3.449,651.98 -2.738,649.393 -0.668,648.226C-3.059,648.226 -5,646.333 -5,644C-5,641.667 -3.059,639.774 -0.668,639.774C-2.738,638.607 -3.449,636.02 -2.254,634C-1.058,631.98 1.594,631.287 3.664,632.453C2.469,630.433 3.179,627.846 5.25,626.679C7.321,625.513 9.972,626.206 11.168,628.226C11.168,625.894 13.109,624 15.5,624C17.891,624 19.832,625.894 19.832,628.226C21.028,626.206 23.679,625.513 25.75,626.679C27.821,627.846 28.531,630.433 27.336,632.453C29.406,631.287 32.058,631.98 33.254,634C34.449,636.02 33.738,638.607 31.668,639.774C34.059,639.774 36,641.667 36,644C36,646.333 34.059,648.226 31.668,648.226C33.738,649.393 34.449,651.98 33.254,654C33.027,654.382 32.749,654.717 32.433,655L-1.433,655Z" style="fill:rgb(133,161,59);stroke:black;stroke-width:2.13px;"/>
                </g>
                <g transform="matrix(0.243902,0,0,0.16129,71.2195,531.355)">
                    <path d="M-1.433,655C-1.749,654.717 -2.027,654.382 -2.254,654C-3.449,651.98 -2.738,649.393 -0.668,648.226C-3.059,648.226 -5,646.333 -5,644C-5,641.667 -3.059,639.774 -0.668,639.774C-2.738,638.607 -3.449,636.02 -2.254,634C-1.058,631.98 1.594,631.287 3.664,632.453C2.469,630.433 3.179,627.846 5.25,626.679C7.321,625.513 9.972,626.206 11.168,628.226C11.168,625.894 13.109,624 15.5,624C17.891,624 19.832,625.894 19.832,628.226C21.028,626.206 23.679,625.513 25.75,626.679C27.821,627.846 28.531,630.433 27.336,632.453C29.406,631.287 32.058,631.98 33.254,634C34.449,636.02 33.738,638.607 31.668,639.774C34.059,639.774 36,641.667 36,644C36,646.333 34.059,648.226 31.668,648.226C33.738,649.393 34.449,651.98 33.254,654C33.027,654.382 32.749,654.717 32.433,655L-1.433,655Z" style="fill:rgb(133,161,59);stroke:black;stroke-width:2.42px;"/>
                </g>
                <g transform="matrix(0.121951,0,0,0.0967742,9.60976,557.613)">
                    <path d="M-1.433,655C-1.749,654.717 -2.027,654.382 -2.254,654C-3.449,651.98 -2.738,649.393 -0.668,648.226C-3.059,648.226 -5,646.333 -5,644C-5,641.667 -3.059,639.774 -0.668,639.774C-2.738,638.607 -3.449,636.02 -2.254,634C-1.058,631.98 1.594,631.287 3.664,632.453C2.469,630.433 3.179,627.846 5.25,626.679C7.321,625.513 9.972,626.206 11.168,628.226C11.168,625.894 13.109,624 15.5,624C17.891,624 19.832,625.894 19.832,628.226C21.028,626.206 23.679,625.513 25.75,626.679C27.821,627.846 28.531,630.433 27.336,632.453C29.406,631.287 32.058,631.98 33.254,634C34.449,636.02 33.738,638.607 31.668,639.774C34.059,639.774 36,641.667 36,644C36,646.333 34.059,648.226 31.668,648.226C33.738,649.393 34.449,651.98 33.254,654C33.027,654.382 32.749,654.717 32.433,655L-1.433,655Z" style="fill:rgb(163,194,85);"/>
                </g>
                <g transform="matrix(0.0731707,0,0,0.0967742,28.8659,555.613)">
                    <path d="M-1.433,655C-1.749,654.717 -2.027,654.382 -2.254,654C-3.449,651.98 -2.738,649.393 -0.668,648.226C-3.059,648.226 -5,646.333 -5,644C-5,641.667 -3.059,639.774 -0.668,639.774C-2.738,638.607 -3.449,636.02 -2.254,634C-1.058,631.98 1.594,631.287 3.664,632.453C2.469,630.433 3.179,627.846 5.25,626.679C7.321,625.513 9.972,626.206 11.168,628.226C11.168,625.894 13.109,624 15.5,624C17.891,624 19.832,625.894 19.832,628.226C21.028,626.206 23.679,625.513 25.75,626.679C27.821,627.846 28.531,630.433 27.336,632.453C29.406,631.287 32.058,631.98 33.254,634C34.449,636.02 33.738,638.607 31.668,639.774C34.059,639.774 36,641.667 36,644C36,646.333 34.059,648.226 31.668,648.226C33.738,649.393 34.449,651.98 33.254,654C33.027,654.382 32.749,654.717 32.433,655L-1.433,655Z" style="fill:rgb(189,217,116);"/>
                </g>
                <g transform="matrix(0.097561,0,0,0.0967742,74.4878,555.613)">
                    <path d="M-1.433,655C-1.749,654.717 -2.027,654.382 -2.254,654C-3.449,651.98 -2.738,649.393 -0.668,648.226C-3.059,648.226 -5,646.333 -5,644C-5,641.667 -3.059,639.774 -0.668,639.774C-2.738,638.607 -3.449,636.02 -2.254,634C-1.058,631.98 1.594,631.287 3.664,632.453C2.469,630.433 3.179,627.846 5.25,626.679C7.321,625.513 9.972,626.206 11.168,628.226C11.168,625.894 13.109,624 15.5,624C17.891,624 19.832,625.894 19.832,628.226C21.028,626.206 23.679,625.513 25.75,626.679C27.821,627.846 28.531,630.433 27.336,632.453C29.406,631.287 32.058,631.98 33.254,634C34.449,636.02 33.738,638.607 31.668,639.774C34.059,639.774 36,641.667 36,644C36,646.333 34.059,648.226 31.668,648.226C33.738,649.393 34.449,651.98 33.254,654C33.027,654.382 32.749,654.717 32.433,655L-1.433,655Z" style="fill:rgb(189,217,116);"/>
                </g>
                <g transform="matrix(0.0731707,0,0,0.0645161,84.3659,570.742)">
                    <path d="M-1.433,655C-1.749,654.717 -2.027,654.382 -2.254,654C-3.449,651.98 -2.738,649.393 -0.668,648.226C-3.059,648.226 -5,646.333 -5,644C-5,641.667 -3.059,639.774 -0.668,639.774C-2.738,638.607 -3.449,636.02 -2.254,634C-1.058,631.98 1.594,631.287 3.664,632.453C2.469,630.433 3.179,627.846 5.25,626.679C7.321,625.513 9.972,626.206 11.168,628.226C11.168,625.894 13.109,624 15.5,624C17.891,624 19.832,625.894 19.832,628.226C21.028,626.206 23.679,625.513 25.75,626.679C27.821,627.846 28.531,630.433 27.336,632.453C29.406,631.287 32.058,631.98 33.254,634C34.449,636.02 33.738,638.607 31.668,639.774C34.059,639.774 36,641.667 36,644C36,646.333 34.059,648.226 31.668,648.226C33.738,649.393 34.449,651.98 33.254,654C33.027,654.382 32.749,654.717 32.433,655L-1.433,655Z" style="fill:rgb(189,217,116);"/>
                </g>
                <g transform="matrix(0.0731707,0,0,0.0645161,19.3659,569.742)">
                    <path d="M-1.433,655C-1.749,654.717 -2.027,654.382 -2.254,654C-3.449,651.98 -2.738,649.393 -0.668,648.226C-3.059,648.226 -5,646.333 -5,644C-5,641.667 -3.059,639.774 -0.668,639.774C-2.738,638.607 -3.449,636.02 -2.254,634C-1.058,631.98 1.594,631.287 3.664,632.453C2.469,630.433 3.179,627.846 5.25,626.679C7.321,625.513 9.972,626.206 11.168,628.226C11.168,625.894 13.109,624 15.5,624C17.891,624 19.832,625.894 19.832,628.226C21.028,626.206 23.679,625.513 25.75,626.679C27.821,627.846 28.531,630.433 27.336,632.453C29.406,631.287 32.058,631.98 33.254,634C34.449,636.02 33.738,638.607 31.668,639.774C34.059,639.774 36,641.667 36,644C36,646.333 34.059,648.226 31.668,648.226C33.738,649.393 34.449,651.98 33.254,654C33.027,654.382 32.749,654.717 32.433,655L-1.433,655Z" style="fill:rgb(189,217,116);"/>
                </g>
                <g transform="matrix(0.121951,0,0,0.0967742,88.1098,561.113)">
                    <path d="M-1.433,655C-1.749,654.717 -2.027,654.382 -2.254,654C-3.449,651.98 -2.738,649.393 -0.668,648.226C-3.059,648.226 -5,646.333 -5,644C-5,641.667 -3.059,639.774 -0.668,639.774C-2.738,638.607 -3.449,636.02 -2.254,634C-1.058,631.98 1.594,631.287 3.664,632.453C2.469,630.433 3.179,627.846 5.25,626.679C7.321,625.513 9.972,626.206 11.168,628.226C11.168,625.894 13.109,624 15.5,624C17.891,624 19.832,625.894 19.832,628.226C21.028,626.206 23.679,625.513 25.75,626.679C27.821,627.846 28.531,630.433 27.336,632.453C29.406,631.287 32.058,631.98 33.254,634C34.449,636.02 33.738,638.607 31.668,639.774C34.059,639.774 36,641.667 36,644C36,646.333 34.059,648.226 31.668,648.226C33.738,649.393 34.449,651.98 33.254,654C33.027,654.382 32.749,654.717 32.433,655L-1.433,655Z" style="fill:rgb(163,194,85);"/>
                </g>
                <g transform="matrix(0.121951,0,0,0.0645161,48.1098,580.742)">
                    <path d="M-1.433,655C-1.749,654.717 -2.027,654.382 -2.254,654C-3.449,651.98 -2.738,649.393 -0.668,648.226C-3.059,648.226 -5,646.333 -5,644C-5,641.667 -3.059,639.774 -0.668,639.774C-2.738,638.607 -3.449,636.02 -2.254,634C-1.058,631.98 1.594,631.287 3.664,632.453C2.469,630.433 3.179,627.846 5.25,626.679C7.321,625.513 9.972,626.206 11.168,628.226C11.168,625.894 13.109,624 15.5,624C17.891,624 19.832,625.894 19.832,628.226C21.028,626.206 23.679,625.513 25.75,626.679C27.821,627.846 28.531,630.433 27.336,632.453C29.406,631.287 32.058,631.98 33.254,634C34.449,636.02 33.738,638.607 31.668,639.774C34.059,639.774 36,641.667 36,644C36,646.333 34.059,648.226 31.668,648.226C33.738,649.393 34.449,651.98 33.254,654C33.027,654.382 32.749,654.717 32.433,655L-1.433,655Z" style="fill:rgb(163,194,85);"/>
                </g>
                <g transform="matrix(0.170732,0,0,0.0967742,61.8918,563.613)">
                    <path d="M-1.433,655C-1.749,654.717 -2.027,654.382 -2.254,654C-3.449,651.98 -2.738,649.393 -0.668,648.226C-3.059,648.226 -5,646.333 -5,644C-5,641.667 -3.059,639.774 -0.668,639.774C-2.738,638.607 -3.449,636.02 -2.254,634C-1.058,631.98 1.594,631.287 3.664,632.453C2.469,630.433 3.179,627.846 5.25,626.679C7.321,625.513 9.972,626.206 11.168,628.226C11.168,625.894 13.109,624 15.5,624C17.891,624 19.832,625.894 19.832,628.226C21.028,626.206 23.679,625.513 25.75,626.679C27.821,627.846 28.531,630.433 27.336,632.453C29.406,631.287 32.058,631.98 33.254,634C34.449,636.02 33.738,638.607 31.668,639.774C34.059,639.774 36,641.667 36,644C36,646.333 34.059,648.226 31.668,648.226C33.738,649.393 34.449,651.98 33.254,654C33.027,654.382 32.749,654.717 32.433,655L-1.433,655Z" style="fill:rgb(163,194,85);stroke:black;stroke-width:3.6px;"/>
                </g>
            </g>
        </g>
    </g>
</svg>
