<?xml version="1.0" encoding="UTF-8" standalone="no"?>
<!DOCTYPE svg PUBLIC "-//W3C//DTD SVG 1.1//EN" "http://www.w3.org/Graphics/SVG/1.1/DTD/svg11.dtd">
<svg width="100%" height="100%" viewBox="0 0 100 100" version="1.1" xmlns="http://www.w3.org/2000/svg" xmlns:xlink="http://www.w3.org/1999/xlink" xml:space="preserve" xmlns:serif="http://www.serif.com/" style="fill-rule:evenodd;clip-rule:evenodd;stroke-linecap:round;stroke-linejoin:round;stroke-miterlimit:1.5;">
    <g transform="matrix(1,0,0,1,-259,-688)">
        <rect id="Swamp" x="259" y="688" width="100" height="100" style="fill:none;"/>
        <clipPath id="_clip1">
            <rect id="Swamp1" serif:id="Swamp" x="259" y="688" width="100" height="100"/>
        </clipPath>
        <g clip-path="url(#_clip1)">
            <g id="Foreground">
                <g id="Background">
                    <rect x="248.681" y="684" width="118.319" height="43" style="fill:rgb(227,234,246);stroke:black;stroke-width:0.5px;"/>
                    <rect x="243" y="727" width="131" height="72" style="fill:rgb(161,180,159);stroke:black;stroke-width:0.5px;"/>
                    <path d="M255,716C258.333,713 269.667,712.333 276,712C281.698,711.7 287.312,713.551 293,714C299.333,714.5 307.833,715.167 314,715C319.373,714.855 325.333,713.333 330,713C333.99,712.715 338.016,712.638 342,713C347.5,713.5 359.5,713 363,716C366.5,719 367.958,730.351 363,731C345.167,733.333 274,732.5 256,730C251.366,729.356 251.667,719 255,716Z" style="fill:rgb(190,208,187);stroke:black;stroke-width:0.5px;"/>
                    <path d="M382,727C331.667,726.667 281.333,726.333 231,726" style="fill:none;stroke:black;stroke-width:0.5px;"/>
                    <g transform="matrix(1,0,0,1,0,-3)">
                        <path d="M255,763C257.667,763.5 263.469,758.844 268,759C272.833,759.167 279.5,763.167 284,764C287.605,764.668 292,764.5 295,764C297.504,763.583 299.75,762 302,761C304.181,760.031 306.135,758.315 308.5,758C311,757.667 315.083,758.167 317,759C318.528,759.665 318.378,762.618 320,763C322.833,763.667 329.667,764 334,763C338.333,762 342.333,758 346,757C349.216,756.123 352.833,756.667 356,757C359.056,757.322 363.167,759.833 365,759C366.833,758.167 367.833,753.333 367,752C366.167,750.667 362.352,751.147 360,751C357.333,750.833 353.667,751.322 351,751C348.597,750.71 346.167,749.571 344,749.071C342.02,748.614 339.333,747.678 338,748C336.832,748.282 337.185,750.802 336,751C334,751.333 329.333,750 326,750C322.667,750 319.347,751.139 316,751C312,750.833 305.833,748.667 302,749C298.729,749.284 296.283,753 293,753C289.5,753 285.167,749.333 281,749C276.833,748.667 271.833,750.833 268,751C267.504,751.022 266.993,750.996 266.475,750.941C263.5,750.62 260.271,749.29 258,750C255.333,750.833 252.5,753.833 252,756C251.5,758.167 252.505,762.532 255,763Z" style="fill:rgb(92,109,18);stroke:black;stroke-width:0.5px;"/>
                    </g>
                    <path d="M257,742C260,744 267.086,741.983 272,741C277.833,739.833 287,735.5 292,735C295.463,734.654 298.523,737.849 302,738C305.833,738.167 311.333,736.333 315,736C317.988,735.728 321,736 324,736C327.333,736 331.337,735.841 335,736C338.833,736.167 343.064,736.213 347,737C351.167,737.833 357.167,741 360,741C361.886,741 363.775,738.872 364,737C364.333,734.223 365.385,724.645 362,724.338C356.924,723.876 347.761,722.086 336.78,722C319.239,721.862 306.06,722.673 288.499,724.155C280.981,724.79 267.22,722.819 259.456,723.451C255.702,723.757 255.648,726.969 254,727C253.333,727.012 253.869,728.346 254,729C254.5,731.5 254,740 257,742Z" style="fill:rgb(133,161,59);stroke:black;stroke-width:0.5px;"/>
                    <g transform="matrix(0.928571,0,0,0.928571,22.5,51.5)">
                        <g transform="matrix(0.210526,0,0,0.307692,260.211,494.385)">
                            <path d="M270.115,782L270,773L271,765L271,756L278,760L279,767L275.885,769L278.885,782C274.191,782.688 274.724,782.209 270.115,782Z" style="fill:rgb(146,110,82);stroke:black;stroke-width:2.04px;"/>
                        </g>
                        <g transform="matrix(1,0,0,1,0,-1)">
                            <ellipse cx="318" cy="727.297" rx="3" ry="5.297" style="fill:rgb(92,109,18);stroke:black;stroke-width:0.54px;"/>
                        </g>
                    </g>
                    <g transform="matrix(0.743098,0,0,0.743098,110.924,186.211)">
                        <g transform="matrix(0.210526,0,0,0.307692,260.211,494.385)">
                            <path d="M270.115,782L270,773L271,765L271,756L278,760L279,767L275.885,769L278.885,782C274.191,782.688 274.724,782.209 270.115,782Z" style="fill:rgb(146,110,82);stroke:black;stroke-width:2.55px;"/>
                        </g>
                        <g transform="matrix(1,0,0,1,0,-1)">
                            <ellipse cx="318" cy="727.297" rx="3" ry="5.297" style="fill:rgb(92,109,18);stroke:black;stroke-width:0.67px;"/>
                        </g>
                    </g>
                    <g transform="matrix(0.928571,0,0,0.928571,-25.5,52.4848)">
                        <g transform="matrix(0.210526,0,0,0.307692,260.211,494.385)">
                            <path d="M270.115,782L270,773L271,765L271,756L278,760L273.885,767L275.885,776L278.885,782L270.115,782Z" style="fill:rgb(146,110,82);stroke:black;stroke-width:2.04px;"/>
                        </g>
                        <g transform="matrix(1,0,0,1,0,-1)">
                            <ellipse cx="318" cy="727.297" rx="3" ry="5.297" style="fill:rgb(92,109,18);stroke:black;stroke-width:0.54px;"/>
                        </g>
                    </g>
                    <g transform="matrix(0.928571,0,0,0.928571,-32.5,57.5)">
                        <g transform="matrix(0.210526,0,0,0.307692,260.211,494.385)">
                            <path d="M270.115,782L270,773L271,765L271,756L278,760L273.885,767L275.885,776L278.885,782L270.115,782Z" style="fill:rgb(146,110,82);stroke:black;stroke-width:2.04px;"/>
                        </g>
                        <g transform="matrix(1,0,0,1,0,-1)">
                            <ellipse cx="318" cy="727.297" rx="3" ry="5.297" style="fill:rgb(92,109,18);stroke:black;stroke-width:0.54px;"/>
                        </g>
                    </g>
                    <g transform="matrix(0.928571,0,0,0.928571,-21.5,56.4186)">
                        <g transform="matrix(0.210526,0,0,0.307692,260.211,494.385)">
                            <path d="M270.115,782L270,773L271,765L271,756L278,760L273.885,767L275.885,776L278.885,782L270.115,782Z" style="fill:rgb(146,110,82);stroke:black;stroke-width:2.04px;"/>
                        </g>
                        <g transform="matrix(1,0,0,1,0,-1)">
                            <ellipse cx="318" cy="727.297" rx="3" ry="5.297" style="fill:rgb(92,109,18);stroke:black;stroke-width:0.54px;"/>
                        </g>
                    </g>
                </g>
                <path d="M257,772C262.667,772 281.333,776.833 289,779C293.886,780.381 300.167,784.5 303,785C304.393,785.246 304.6,781.8 306,782C308.333,782.333 315,784.833 317,787C318.823,788.975 320.429,793.85 318,795C314.833,796.5 304.673,796.142 298,796C290.167,795.833 278.347,795.167 271,794C265.141,793.07 256.585,791.5 253.919,789C251.473,786.707 254.486,781.833 255,779C255.433,776.612 254.573,772 257,772Z" style="fill:rgb(92,109,18);stroke:black;stroke-width:0.5px;"/>
                <g transform="matrix(0.647239,0,0,1,89.1771,5.07085)">
                    <path d="M318,774C317.833,774.667 326.167,775 329,775C331.028,775 334.833,774.667 335,774C335.167,773.333 331.944,771 330,771C327.167,771 318.167,773.333 318,774Z" style="fill:rgb(110,108,14);stroke:black;stroke-width:0.59px;"/>
                </g>
                <g transform="matrix(1.23517,0,0,1,-68.7848,12.0708)">
                    <path d="M318,774C317.833,774.667 326.167,775 329,775C331.028,775 334.833,774.667 335,774C335.167,773.333 331.944,771 330,771C327.167,771 318.167,773.333 318,774Z" style="fill:rgb(110,108,14);stroke:black;stroke-width:0.44px;"/>
                </g>
                <g transform="matrix(0.647239,0,0,-1,80.1771,1519.07)">
                    <path d="M318,774C317.833,774.667 326.167,775 329,775C331.028,775 334.833,774.667 335,774C335.167,773.333 331.944,771 330,771C327.167,771 318.167,773.333 318,774Z" style="fill:rgb(110,108,14);stroke:black;stroke-width:0.59px;"/>
                </g>
                <g transform="matrix(0.353271,0,0,0.75,215.658,164.821)">
                    <path d="M318,774C317.833,774.667 326.167,775 329,775C331.028,775 334.833,774.667 335,774C335.167,773.333 331.944,771 330,771C327.167,771 318.167,773.333 318,774Z" style="fill:rgb(110,108,14);stroke:black;stroke-width:0.85px;"/>
                </g>
                <g transform="matrix(0.823619,0,0,0.75,21.0886,158.475)">
                    <path d="M318,774C317.833,774.667 326.167,775 329,775C331.028,775 334.833,774.667 335,774C335.167,773.333 331.944,771 330,771C327.167,771 318.167,773.333 318,774Z" style="fill:rgb(133,161,59);stroke:black;stroke-width:0.63px;"/>
                </g>
                <g transform="matrix(1.23517,0,0,1.88997,-55.7848,-699.949)">
                    <path d="M318,774C317.833,774.667 326.167,775 329,775C331.028,775 334.833,774.667 335,774C335.167,773.333 331.944,771 330,771C327.167,771 318.167,773.333 318,774Z" style="fill:rgb(110,108,14);stroke:black;stroke-width:0.31px;"/>
                </g>
                <g transform="matrix(1,0,0,1,-17.4563,-12)">
                    <path d="M318,774C317.833,774.667 326.167,775 329,775C331.028,775 334.833,774.667 335,774C335.167,773.333 331.944,771 330,771C327.167,771 318.167,773.333 318,774Z" style="fill:rgb(110,108,14);stroke:black;stroke-width:0.5px;"/>
                </g>
                <g transform="matrix(1,0,0,1,0,4)">
                    <path d="M265,782L270,773L271,765L271,756L278,760L279,767L281,776L284,782L265,782Z" style="fill:rgb(181,141,110);stroke:black;stroke-width:0.5px;"/>
                </g>
                <g transform="matrix(0.743603,0,0,0.743603,152.029,165.432)">
                    <g transform="matrix(0.966126,-0.258071,0.258071,0.966126,-193.702,93.474)">
                        <path d="M232,779C232,779 230,786 230,789C230,790.104 230.896,791 232,791C233.104,791 234,790.104 234,789C234,786 232,779 232,779Z" style="fill:rgb(160,186,45);stroke:black;stroke-width:0.67px;"/>
                    </g>
                    <g transform="matrix(0.987517,0.157513,-0.157513,0.987517,131.174,-19.8187)">
                        <path d="M232,779C232,779 230,786 230,789C230,790.104 230.896,791 232,791C233.104,791 234,790.104 234,789C234,786 232,779 232,779Z" style="fill:rgb(160,186,45);stroke:black;stroke-width:0.67px;"/>
                    </g>
                    <g transform="matrix(1.25,0,0,1.08333,-55.5,-57.9167)">
                        <path d="M232,779C232,779 230,785.785 230,788.692C230,789.966 230.896,791 232,791C233.104,791 234,789.966 234,788.692C234,785.785 232,779 232,779Z" style="fill:rgb(160,186,45);stroke:black;stroke-width:0.57px;"/>
                    </g>
                </g>
                <g transform="matrix(0.617647,0,0,0.617647,120.941,259.199)">
                    <g transform="matrix(0.966126,-0.258071,0.258071,0.966126,-193.702,93.474)">
                        <path d="M232,779C232,779 230,786 230,789C230,790.104 230.896,791 232,791C233.104,791 234,790.104 234,789C234,786 232,779 232,779Z" style="fill:rgb(160,186,45);stroke:black;stroke-width:0.81px;"/>
                    </g>
                    <g transform="matrix(0.987517,0.157513,-0.157513,0.987517,131.174,-19.8187)">
                        <path d="M232,779C232,779 230,786 230,789C230,790.104 230.896,791 232,791C233.104,791 234,790.104 234,789C234,786 232,779 232,779Z" style="fill:rgb(160,186,45);stroke:black;stroke-width:0.81px;"/>
                    </g>
                    <g transform="matrix(1.25,0,0,1.08333,-55.5,-57.9167)">
                        <path d="M232,779C232,779 230,785.785 230,788.692C230,789.966 230.896,791 232,791C233.104,791 234,789.966 234,788.692C234,785.785 232,779 232,779Z" style="fill:rgb(160,186,45);stroke:black;stroke-width:0.69px;"/>
                    </g>
                </g>
            </g>
        </g>
    </g>
</svg>
