<?xml version="1.0" encoding="UTF-8" standalone="no"?>
<!DOCTYPE svg PUBLIC "-//W3C//DTD SVG 1.1//EN" "http://www.w3.org/Graphics/SVG/1.1/DTD/svg11.dtd">
<svg width="100%" height="100%" viewBox="0 0 100 100" version="1.1" xmlns="http://www.w3.org/2000/svg" xmlns:xlink="http://www.w3.org/1999/xlink" xml:space="preserve" xmlns:serif="http://www.serif.com/" style="fill-rule:evenodd;clip-rule:evenodd;stroke-linejoin:round;stroke-miterlimit:2;">
    <g transform="matrix(1,0,0,1,0,-926)">
        <g id="unknown" transform="matrix(0.980392,0,0,1,-257.843,2)">
            <rect x="263" y="924" width="102" height="100" style="fill:none;"/>
            <clipPath id="_clip1">
                <rect x="263" y="924" width="102" height="100"/>
            </clipPath>
            <g clip-path="url(#_clip1)">
                <g transform="matrix(1.02,0,0,1,-5.26,0)">
                    <rect x="256" y="920" width="123" height="114" style="fill:rgb(254,254,254);"/>
                </g>
                <g transform="matrix(-1.02,0,0,1,509.58,-33)">
                    <path d="M136,987C138.132,984.867 150.155,987.851 155,985C159.738,982.212 166,983.167 171,983C175.676,982.844 180.331,983.708 185,984C190.333,984.333 196.993,984.838 203,985C209.167,985.167 216.667,985.5 222,985C226.428,984.585 231.167,982.5 235,982C238.305,981.569 243,981.5 245,982C246.166,982.291 246.983,983.798 247,985C247.167,997 258,1041.83 246,1054C234,1066.17 193.5,1057.17 175,1058C161.676,1058.6 141.421,1070.69 135,1059C128.5,1047.17 126.969,996.037 136,987Z" style="fill:rgb(245,245,245);"/>
                </g>
                <g transform="matrix(1.02,0,0,1,115.1,-22)">
                    <path d="M139,989C140.953,985.438 149.166,980.073 156.426,975.296C159.697,973.144 162.774,969.518 165,969C169.701,967.907 171.102,972.061 174.787,975.63C176.121,976.922 181.23,978.138 182,979C184.128,981.383 190.43,985.723 193.307,989.955C196.063,994.008 189.429,994.961 190,997C190.725,999.588 185.681,1000.81 183,1001C176,1001.5 155.333,1002 148,1000C143.429,998.753 136.722,993.154 139,989Z" style="fill:rgb(227,227,227);"/>
                </g>
                <g transform="matrix(1.02,0,0,1,177.32,-20)">
                    <path d="M139,989C140.826,985.671 139.119,984.019 145.993,979.264C149.786,976.639 162.452,969.593 165,969C168.321,968.228 169.99,971.074 173.158,973.482C176.099,975.718 180.606,977.439 182,979C184.128,981.383 190.43,985.723 193.307,989.955C196.063,994.008 189.429,994.961 190,997C190.725,999.588 185.681,1000.81 183,1001C176,1001.5 155.333,1002 148,1000C143.429,998.753 136.722,993.154 139,989Z" style="fill:rgb(224,224,224);"/>
                </g>
                <g transform="matrix(-1.02,0,0,1,510.6,-23)">
                    <path d="M139,987C139.755,983.172 144.647,982.521 150,983C160.604,983.948 166.29,979.626 171,979C175.731,978.372 180.309,981.12 185,982C190.333,983 197.833,984.667 203,985C207.337,985.28 211.744,984.881 216,984C220.833,983 227.167,979.333 232,979C236.437,978.694 242.5,981 245,982C246.116,982.446 246.983,983.798 247,985C247.167,997 258,1041.83 246,1054C234,1066.17 193.5,1057.17 175,1058C161.676,1058.6 141,1070.83 135,1059C129,1047.17 136.5,999.667 139,987Z" style="fill:rgb(235,235,235);"/>
                </g>
                <g transform="matrix(1.02,0,0,1,164.06,0)">
                    <path d="M136,986C136.556,984.888 146.229,980.67 147.001,979.498C147.906,978.123 152.073,977.867 155.401,975.898C158.915,973.819 161.608,970.061 163,970C164.393,969.939 165.975,969.683 167.564,970.809C168.065,971.164 170.566,973.557 171.062,973.974C173.327,975.881 178.442,978.349 180,980C182.006,982.127 188.497,978.243 190.095,979.555C191.876,981.018 200.79,987.723 202.307,989.955C205.063,994.008 189.429,994.961 190,997C190.725,999.588 185.681,1000.81 183,1001C176,1001.5 155.833,1002.5 148,1000C142.145,998.131 133.5,991 136,986Z" style="fill:rgb(219,219,219);"/>
                </g>
                <g transform="matrix(1.02,0,0,1,115.1,2)">
                    <path d="M139,987C140.783,983.859 144.039,984.625 148.221,985.07C150.264,985.287 152.289,985.428 154,985C155.274,984.682 157.567,983.955 158.865,983.154C160.184,982.34 161.508,982.449 162.823,981.829C164.325,981.122 165.816,980.722 167.274,980.464C168.233,980.294 172.703,980.03 173,980C176.763,979.624 177.407,979.175 181.092,981.273C181.968,981.772 184.026,981.817 185,982C187.247,982.421 190.72,981.933 193.283,982.421C196.803,983.091 197.492,984.716 201,985C202.224,985.099 206.52,984.333 207.85,984.591C210.143,985.036 211.536,986.553 213.826,986.574C216.895,986.602 219.781,985.459 222,985C225.807,984.212 229.167,981.5 233,981C234.655,980.784 236.837,981.127 238.985,981.667C241.812,982.379 243.579,981.432 245,982C246.116,982.446 246.864,983.806 247,985C247.833,992.333 261.791,1019.02 250,1026C237.333,1033.5 190.333,1030.67 171,1030C158.389,1029.57 139.333,1029.17 134,1022C128.667,1014.83 135.5,993.167 139,987Z" style="fill:rgb(204,204,204);"/>
                </g>
                <g transform="matrix(1,0,0,0.571429,0,441)">
                    <g transform="matrix(1.02,0,0,1,118.16,-2)">
                        <path d="M164,1016L162,1010.91L163,995L165,1006L164,1016Z" style="fill:rgb(120,120,120);"/>
                    </g>
                    <g transform="matrix(-2.04,0,0,1,681.2,10.25)">
                        <path d="M164,1010.75L164,995L165,1006L164,1010.75Z" style="fill:rgb(120,120,120);"/>
                    </g>
                    <g transform="matrix(1.02,0,0,1,118.16,-1)">
                        <path d="M144,1017L157,1014L165,1005L163,994L168,988L179,988L203,992L213,999L224,1006L223,1013L227,1015L232,1019L241,1020L247,1022L247,1030L143,1030L140,1022L144,1017Z" style="fill:rgb(171,171,171);"/>
                    </g>
                </g>
                <g transform="matrix(1.02,0,0,1,263,-2)">
                    <ellipse cx="35" cy="1021" rx="2" ry="1" style="fill:rgb(148,148,148);"/>
                </g>
                <g transform="matrix(1.02,0,0,1,303.8,-3)">
                    <ellipse cx="35" cy="1021" rx="2" ry="1" style="fill:rgb(148,148,148);"/>
                </g>
                <g transform="matrix(1.02,0,0,1,271.16,0)">
                    <ellipse cx="35" cy="1021" rx="2" ry="1" style="fill:rgb(148,148,148);"/>
                </g>
            </g>
        </g>
    </g>
</svg>
