<?xml version="1.0" encoding="UTF-8" standalone="no"?>
<!DOCTYPE svg PUBLIC "-//W3C//DTD SVG 1.1//EN" "http://www.w3.org/Graphics/SVG/1.1/DTD/svg11.dtd">
<svg width="100%" height="100%" viewBox="0 0 100 100" version="1.1" xmlns="http://www.w3.org/2000/svg" xmlns:xlink="http://www.w3.org/1999/xlink" xml:space="preserve" xmlns:serif="http://www.serif.com/" style="fill-rule:evenodd;clip-rule:evenodd;stroke-linecap:round;stroke-linejoin:round;stroke-miterlimit:1.5;">
    <g transform="matrix(1,0,0,1,-374,-459)">
        <g id="Woods" transform="matrix(1,0,0,1,258,-6)">
            <rect x="116" y="465" width="100" height="100" style="fill:none;"/>
            <clipPath id="_clip1">
                <rect x="116" y="465" width="100" height="100"/>
            </clipPath>
            <g clip-path="url(#_clip1)">
                <g id="Background">
                    <g transform="matrix(1,0,0,1,2,5)">
                        <rect x="109" y="459" width="110" height="49" style="fill:rgb(227,234,246);stroke:black;stroke-width:0.5px;"/>
                    </g>
                    <g transform="matrix(1,0,0,1,2,5)">
                        <rect x="107" y="518" width="116" height="24.015" style="fill:rgb(54,64,10);stroke:black;stroke-width:0.5px;"/>
                    </g>
                    <g transform="matrix(1.07527,0,0,1.125,-3.59415,-57)">
                        <path d="M110,526C118,521.5 144.333,528.833 157,529C166.689,529.127 176.311,527.147 186,527C197,526.833 216.833,521.167 223,528C229.167,534.833 223,568 223,568L115,566L109,556C109,556 102,530.5 110,526Z" style="fill:rgb(129,151,29);stroke:black;stroke-width:0.91px;"/>
                    </g>
                    <g transform="matrix(1.85787,0,0,1.71667,-95.2241,-357.076)">
                        <path d="M120.07,489.585C120.07,488.71 121.159,488 122.5,488C123.841,488 124.93,488.71 124.93,489.585C125.601,488.827 127.088,488.567 128.25,489.005C129.412,489.442 129.81,490.412 129.14,491.17C130.301,490.732 131.789,490.992 132.459,491.75C133.13,492.508 132.731,493.478 131.57,493.915C132.911,493.915 134,494.625 134,495.5C134,496.375 132.911,497.085 131.57,497.085C132.731,497.522 133.13,498.492 132.459,499.25C131.789,500.008 130.301,500.268 129.14,499.83C129.81,500.588 129.412,501.558 128.25,501.995C127.088,502.433 125.601,502.173 124.93,501.415C124.93,502.29 123.841,503 122.5,503C121.159,503 120.07,502.29 120.07,501.415C119.399,502.173 117.912,502.433 116.75,501.995C115.588,501.558 115.19,500.588 115.86,499.83C114.699,500.268 113.211,500.008 112.541,499.25C111.87,498.492 112.269,497.522 113.43,497.085C112.089,497.085 111,496.375 111,495.5C111,494.625 112.089,493.915 113.43,493.915C112.269,493.478 111.87,492.508 112.541,491.75C113.211,490.992 114.699,490.732 115.86,491.17C115.19,490.412 115.588,489.442 116.75,489.005C117.912,488.567 119.399,488.827 120.07,489.585Z" style="fill:rgb(205,228,100);stroke:black;stroke-width:0.56px;"/>
                    </g>
                    <g transform="matrix(1.42896,0,0,1.85,20.6984,-422.226)">
                        <path d="M120.07,489.585C120.07,488.71 121.159,488 122.5,488C123.841,488 124.93,488.71 124.93,489.585C125.601,488.827 127.088,488.567 128.25,489.005C129.412,489.442 129.81,490.412 129.14,491.17C130.301,490.732 131.789,490.992 132.459,491.75C133.13,492.508 132.731,493.478 131.57,493.915C132.911,493.915 134,494.625 134,495.5C134,496.375 132.911,497.085 131.57,497.085C132.731,497.522 133.13,498.492 132.459,499.25C131.789,500.008 130.301,500.268 129.14,499.83C129.81,500.588 129.412,501.558 128.25,501.995C127.088,502.433 125.601,502.173 124.93,501.415C124.93,502.29 123.841,503 122.5,503C121.159,503 120.07,502.29 120.07,501.415C119.399,502.173 117.912,502.433 116.75,501.995C115.588,501.558 115.19,500.588 115.86,499.83C114.699,500.268 113.211,500.008 112.541,499.25C111.87,498.492 112.269,497.522 113.43,497.085C112.089,497.085 111,496.375 111,495.5C111,494.625 112.089,493.915 113.43,493.915C112.269,493.478 111.87,492.508 112.541,491.75C113.211,490.992 114.699,490.732 115.86,491.17C115.19,490.412 115.588,489.442 116.75,489.005C117.912,488.567 119.399,488.827 120.07,489.585Z" style="fill:rgb(185,211,68);stroke:black;stroke-width:0.6px;"/>
                    </g>
                    <g transform="matrix(1.07527,0,0,1.125,36.8396,-67.7826)">
                        <path d="M159.576,491L166.151,511.584L153,511.584L159.576,491Z" style="fill:rgb(92,109,18);stroke:black;stroke-width:0.91px;"/>
                    </g>
                    <g transform="matrix(0.911744,0,0,1.07035,30.1045,-45.573)">
                        <path d="M159.576,491L166.151,511.584L153,511.584L159.576,491Z" style="fill:rgb(92,109,18);stroke:black;stroke-width:1.01px;"/>
                    </g>
                    <g transform="matrix(0.911744,0,0,1.07035,7.10454,-46.573)">
                        <path d="M159.576,491L166.151,511.584L153,511.584L159.576,491Z" style="fill:rgb(92,109,18);stroke:black;stroke-width:1.01px;"/>
                    </g>
                    <g transform="matrix(1.07527,0,0,2.26348,69.0976,-610.331)">
                        <path d="M120.07,489.585C120.07,488.71 121.159,488 122.5,488C123.841,488 124.93,488.71 124.93,489.585C125.601,488.827 127.088,488.567 128.25,489.005C129.412,489.442 129.81,490.412 129.14,491.17C130.301,490.732 131.789,490.992 132.459,491.75C133.13,492.508 132.731,493.478 131.57,493.915C132.911,493.915 134,494.625 134,495.5C134,496.375 132.911,497.085 131.57,497.085C132.731,497.522 133.13,498.492 132.459,499.25C131.789,500.008 130.301,500.268 129.14,499.83C129.81,500.588 129.412,501.558 128.25,501.995C127.088,502.433 125.601,502.173 124.93,501.415C124.93,502.29 123.841,503 122.5,503C121.159,503 120.07,502.29 120.07,501.415C119.399,502.173 117.912,502.433 116.75,501.995C115.588,501.558 115.19,500.588 115.86,499.83C114.699,500.268 113.211,500.008 112.541,499.25C111.87,498.492 112.269,497.522 113.43,497.085C112.089,497.085 111,496.375 111,495.5C111,494.625 112.089,493.915 113.43,493.915C112.269,493.478 111.87,492.508 112.541,491.75C113.211,490.992 114.699,490.732 115.86,491.17C115.19,490.412 115.588,489.442 116.75,489.005C117.912,488.567 119.399,488.827 120.07,489.585Z" style="fill:rgb(160,186,45);stroke:black;stroke-width:0.56px;"/>
                    </g>
                    <g transform="matrix(1.02245,0,0,1.06974,0.690198,-53.2936)">
                        <g transform="matrix(1.17882,0,0,1.57632,166.776,51.324)">
                            <path d="M17,290L10,299L14,300L8,305L13,306L6,311L13,312L5,316L14,318L20.933,318.22L27,316L20,312L27,311L19,306L24,305L19,300L23,298L17,290Z" style="fill:rgb(50,58,49);stroke:black;stroke-width:0.68px;"/>
                        </g>
                        <g transform="matrix(1,0,0,1,165.637,234.72)">
                            <path d="M14,321L20,321L19,318.22L15,318.22L14,321Z" style="fill:rgb(100,74,54);stroke:black;stroke-width:0.96px;"/>
                        </g>
                    </g>
                    <g transform="matrix(0.50144,0,0,0.524633,102.813,250.212)">
                        <g transform="matrix(2.03179,0,0,1.94265,-4.02372,-538.169)">
                            <path d="M60.196,510.226C60.196,507.894 61.901,506 64,506C66.099,506 67.804,507.894 67.804,510.226C68.854,508.206 71.182,507.513 73,508.679C74.818,509.846 75.442,512.433 74.392,514.453C76.21,513.287 78.539,513.98 79.588,516C80.638,518.02 80.014,520.607 78.196,521.774C80.296,521.774 82,523.667 82,526C82,528.333 80.296,530.226 78.196,530.226C80.014,531.393 80.638,533.98 79.588,536C78.539,538.02 76.21,538.713 74.392,537.547C75.442,539.567 74.818,542.154 73,543.321C71.182,544.487 68.854,543.794 67.804,541.774C67.804,544.106 66.099,546 64,546C61.901,546 60.196,544.106 60.196,541.774C59.146,543.794 56.818,544.487 55,543.321C53.182,542.154 52.558,539.567 53.608,537.547C51.79,538.713 49.461,538.02 48.412,536C47.362,533.98 47.986,531.393 49.804,530.226C47.704,530.226 46,528.333 46,526C46,523.667 47.704,521.774 49.804,521.774C47.986,520.607 47.362,518.02 48.412,516C49.461,513.98 51.79,513.287 53.608,514.453C52.558,512.433 53.182,509.846 55,508.679C56.818,507.513 59.146,508.206 60.196,510.226Z" style="fill:rgb(160,186,45);stroke:black;stroke-width:0.98px;"/>
                        </g>
                        <g transform="matrix(0.995557,0.0941641,-0.0941641,0.995557,155.519,11.0425)">
                            <ellipse cx="10.5" cy="473.5" rx="2.5" ry="1.5" style="fill:rgb(160,186,45);"/>
                        </g>
                        <g transform="matrix(0.995557,0.0941641,-0.0941641,0.995557,161.05,16.278)">
                            <ellipse cx="10.5" cy="473.5" rx="2.5" ry="1.5" style="fill:rgb(160,186,45);"/>
                        </g>
                    </g>
                    <g transform="matrix(0.183582,0,0,0.20462,206.247,403.176)">
                        <path d="M-1.433,655C-1.749,654.717 -2.027,654.382 -2.254,654C-3.449,651.98 -2.738,649.393 -0.668,648.226C-3.059,648.226 -5,646.333 -5,644C-5,641.667 -3.059,639.774 -0.668,639.774C-2.738,638.607 -3.449,636.02 -2.254,634C-1.058,631.98 1.594,631.287 3.664,632.453C2.469,630.433 3.179,627.846 5.25,626.679C7.321,625.513 9.972,626.206 11.168,628.226C11.168,625.894 13.109,624 15.5,624C17.891,624 19.832,625.894 19.832,628.226C21.028,626.206 23.679,625.513 25.75,626.679C27.821,627.846 28.531,630.433 27.336,632.453C29.406,631.287 32.058,631.98 33.254,634C34.449,636.02 33.738,638.607 31.668,639.774C34.059,639.774 36,641.667 36,644C36,646.333 34.059,648.226 31.668,648.226C33.738,649.393 34.449,651.98 33.254,654C33.027,654.382 32.749,654.717 32.433,655L-1.433,655Z" style="fill:rgb(160,186,45);stroke:black;stroke-width:2.57px;"/>
                    </g>
                    <g transform="matrix(-0.455108,0,0,0.723666,146.244,157.716)">
                        <path d="M39.4,530C39.9,529.5 33.543,529.293 33,527C32.709,525.774 32.466,523.88 32.295,521.651C31.841,515.7 31.909,507.365 33,503C34.213,498.149 39.5,493.833 42,491C43.722,489.048 47.833,486.833 48,486C48.167,485.167 44.514,485.303 43,486C40.267,487.259 34.767,494.389 31.6,493.556C28.433,492.722 25.333,478.767 24,481C23.625,481.628 30.469,497.826 26.828,499.103C21.919,500.825 6.294,487.965 6.971,491.629C7.576,494.909 26.83,501.962 27,504.395C27.455,510.914 27.783,519.353 27,524C26.473,527.129 21.8,531.278 22.3,532.278C22.8,533.278 27.347,530.353 30,530C32.85,529.62 38.9,530.5 39.4,530Z" style="fill:rgb(181,141,110);stroke:black;stroke-width:0.83px;"/>
                    </g>
                </g>
                <g id="Foreground">
                    <path d="M112,550C118.5,546.667 134.997,545.835 151,549C163.493,551.471 178.695,553.77 189.875,551.271C190.255,551.187 190.63,551.096 191,551C203.085,547.862 214.167,548.167 219,551C223.833,553.833 220,568 220,568L112,569C112,569 106.364,552.89 112,550Z" style="fill:rgb(92,109,18);stroke:black;stroke-width:1px;"/>
                    <g transform="matrix(1.14756,0,0,1.14756,-20.216,-89.504)">
                        <g transform="matrix(0.84375,0,0,1.30712,-34.2812,-146.045)">
                            <path d="M183.619,500.959C183.619,499.326 185.134,498 187,498C188.866,498 190.381,499.326 190.381,500.959C191.314,499.544 193.384,499.059 195,499.876C196.616,500.692 197.171,502.503 196.238,503.917C197.854,503.101 199.923,503.586 200.856,505C201.789,506.414 201.235,508.225 199.619,509.041C201.485,509.041 203,510.367 203,512C203,513.633 201.485,514.959 199.619,514.959C201.235,515.775 201.789,517.586 200.856,519C199.923,520.414 197.854,520.899 196.238,520.083C197.171,521.497 196.616,523.308 195,524.124C193.384,524.941 191.314,524.456 190.381,523.041C190.381,524.674 188.866,526 187,526C185.134,526 183.619,524.674 183.619,523.041C182.686,524.456 180.616,524.941 179,524.124C177.384,523.308 176.829,521.497 177.762,520.083C176.146,520.899 174.077,520.414 173.144,519C172.211,517.586 172.765,515.775 174.381,514.959C172.515,514.959 171,513.633 171,512C171,510.367 172.515,509.041 174.381,509.041C172.765,508.225 172.211,506.414 173.144,505C174.077,503.586 176.146,503.101 177.762,503.917C176.829,502.503 177.384,500.692 179,499.876C180.616,499.059 182.686,499.544 183.619,500.959Z" style="fill:rgb(129,151,29);stroke:black;stroke-width:0.79px;"/>
                        </g>
                        <g transform="matrix(-0.496322,0,0,0.681923,137.834,189.224)">
                            <path d="M39.4,530C39.9,529.5 33.543,529.293 33,527C32.709,525.774 32.466,523.88 32.295,521.651C31.841,515.7 31.909,507.365 33,503C34.213,498.149 39.5,493.833 42,491C43.722,489.048 47.833,486.833 48,486C48.167,485.167 44.514,485.303 43,486C40.267,487.259 34.767,494.389 31.6,493.556C28.433,492.722 25.333,478.767 24,481C23.625,481.628 30.469,497.826 26.828,499.103C21.919,500.825 6.294,487.965 6.971,491.629C7.576,494.909 26.83,501.962 27,504.395C27.455,510.914 27.783,519.353 27,524C26.473,527.129 21.8,531.278 22.3,532.278C22.8,533.278 27.347,530.353 30,530C32.85,529.62 38.9,530.5 39.4,530Z" style="fill:rgb(181,141,110);stroke:black;stroke-width:0.73px;"/>
                        </g>
                    </g>
                    <g transform="matrix(0.629424,0,0,0.616935,121.057,150.916)">
                        <path d="M-1.433,655C-1.749,654.717 -2.027,654.382 -2.254,654C-3.449,651.98 -2.738,649.393 -0.668,648.226C-3.059,648.226 -5,646.333 -5,644C-5,641.667 -3.059,639.774 -0.668,639.774C-2.738,638.607 -3.449,636.02 -2.254,634C-1.058,631.98 1.594,631.287 3.664,632.453C2.469,630.433 3.179,627.846 5.25,626.679C7.321,625.513 9.972,626.206 11.168,628.226C11.168,625.894 13.109,624 15.5,624C17.891,624 19.832,625.894 19.832,628.226C21.028,626.206 23.679,625.513 25.75,626.679C27.821,627.846 28.531,630.433 27.336,632.453C29.406,631.287 32.058,631.98 33.254,634C34.449,636.02 33.738,638.607 31.668,639.774C34.059,639.774 36,641.667 36,644C36,646.333 34.059,648.226 31.668,648.226C33.738,649.393 34.449,651.98 33.254,654C33.027,654.382 32.749,654.717 32.433,655L-1.433,655Z" style="fill:rgb(54,64,10);stroke:black;stroke-width:0.8px;"/>
                    </g>
                    <g transform="matrix(1.02245,0,0,1.06974,-27.2667,-46.1423)">
                        <g transform="matrix(1.04545,0,0,1.34444,165.41,125.112)">
                            <path d="M17,290L10,299L14,300L8,305L13,306L6,311L13,312L5,316L14,318L20.933,318.22L27,316L20,312L27,311L19,306L24,305L19,300L23,298L17,290Z" style="fill:rgb(50,58,49);stroke:black;stroke-width:0.79px;"/>
                        </g>
                        <g transform="matrix(1,0,0,1,165.637,234.72)">
                            <path d="M14,321L20,321L19,318.22L15,318.22L14,321Z" style="fill:rgb(100,74,54);stroke:black;stroke-width:0.96px;"/>
                        </g>
                    </g>
                    <g transform="matrix(1.07527,0,0,1.125,-8.32158,-72.75)">
                        <g transform="matrix(0.84375,0,0,1.30712,16.7188,-140.626)">
                            <path d="M183.619,500.959C183.619,499.326 185.134,498 187,498C188.866,498 190.381,499.326 190.381,500.959C191.314,499.544 193.384,499.059 195,499.876C196.616,500.692 197.171,502.503 196.238,503.917C197.854,503.101 199.923,503.586 200.856,505C201.789,506.414 201.235,508.225 199.619,509.041C201.485,509.041 203,510.367 203,512C203,513.633 201.485,514.959 199.619,514.959C201.235,515.775 201.789,517.586 200.856,519C199.923,520.414 197.854,520.899 196.238,520.083C197.171,521.497 196.616,523.308 195,524.124C193.384,524.941 191.314,524.456 190.381,523.041C190.381,524.674 188.866,526 187,526C185.134,526 183.619,524.674 183.619,523.041C182.686,524.456 180.616,524.941 179,524.124C177.384,523.308 176.829,521.497 177.762,520.083C176.146,520.899 174.077,520.414 173.144,519C172.211,517.586 172.765,515.775 174.381,514.959C172.515,514.959 171,513.633 171,512C171,510.367 172.515,509.041 174.381,509.041C172.765,508.225 172.211,506.414 173.144,505C174.077,503.586 176.146,503.101 177.762,503.917C176.829,502.503 177.384,500.692 179,499.876C180.616,499.059 182.686,499.544 183.619,500.959Z" style="fill:rgb(129,151,29);stroke:black;stroke-width:0.82px;"/>
                        </g>
                        <g transform="matrix(-0.452588,0,0,0.453641,187.11,316.2)">
                            <path d="M39.4,530C39.9,529.5 33.543,529.293 33,527C32.709,525.774 32.466,523.88 32.295,521.651C31.841,515.7 30.035,507.365 31.126,503C31.833,500.172 39.453,499.981 39.72,498.335C39.912,497.158 35.386,498.198 33.655,497.475C33.02,497.209 32.342,499.129 28.702,500.406C28.293,500.55 27.874,500.628 27.45,500.654C22.798,500.931 17.594,494.788 18.214,498.146C18.819,501.426 27.002,501.956 27,504.395C26.982,529.131 27.758,520.313 27,524C26.361,527.108 21.8,531.278 22.3,532.278C22.8,533.278 27.347,530.353 30,530C32.85,529.62 38.9,530.5 39.4,530Z" style="fill:rgb(181,141,110);stroke:black;stroke-width:1px;"/>
                        </g>
                        <g transform="matrix(0.62494,0.20104,-0.20104,0.62494,155.605,166.297)">
                            <g transform="matrix(0.995557,0.0941641,-0.0941641,0.995557,233.206,29.8772)">
                                <ellipse cx="10.5" cy="473.5" rx="2.5" ry="1.5" style="fill:rgb(205,228,100);"/>
                            </g>
                            <g transform="matrix(0.995557,0.0941641,-0.0941641,0.995557,238.737,35.1127)">
                                <ellipse cx="10.5" cy="473.5" rx="2.5" ry="1.5" style="fill:rgb(205,228,100);"/>
                            </g>
                        </g>
                    </g>
                    <g transform="matrix(0.62968,0,0,0.658804,61.5961,186.584)">
                        <g transform="matrix(2.16898,0,0,1.54323,1.81293,-318.357)">
                            <path d="M60.196,510.226C60.196,507.894 61.901,506 64,506C66.099,506 67.804,507.894 67.804,510.226C68.854,508.206 71.182,507.513 73,508.679C74.818,509.846 75.442,512.433 74.392,514.453C76.21,513.287 78.539,513.98 79.588,516C80.638,518.02 80.014,520.607 78.196,521.774C80.296,521.774 82,523.667 82,526C82,528.333 80.296,530.226 78.196,530.226C80.014,531.393 80.638,533.98 79.588,536C78.539,538.02 76.21,538.713 74.392,537.547C75.442,539.567 74.818,542.154 73,543.321C71.182,544.487 68.854,543.794 67.804,541.774C67.804,544.106 66.099,546 64,546C61.901,546 60.196,544.106 60.196,541.774C59.146,543.794 56.818,544.487 55,543.321C53.182,542.154 52.558,539.567 53.608,537.547C51.79,538.713 49.461,538.02 48.412,536C47.362,533.98 47.986,531.393 49.804,530.226C47.704,530.226 46,528.333 46,526C46,523.667 47.704,521.774 49.804,521.774C47.986,520.607 47.362,518.02 48.412,516C49.461,513.98 51.79,513.287 53.608,514.453C52.558,512.433 53.182,509.846 55,508.679C56.818,507.513 59.146,508.206 60.196,510.226Z" style="fill:rgb(92,109,18);stroke:black;stroke-width:0.83px;"/>
                        </g>
                        <g transform="matrix(0.903982,0,0,0.826624,71.5227,116.989)">
                            <path d="M70,533C71,524.167 71.81,493.167 69,483C67.286,476.799 56.37,474.958 53.14,472C51.268,470.286 47.122,464.777 49.616,465.249C52.26,465.749 60.167,475.47 69,475C70.805,474.904 72.694,462.604 74.61,462.168C77.831,461.436 73.132,472.557 76.248,473.93C77.71,474.573 80.941,471.467 84.349,471.462C86.552,471.46 94.058,469.511 93,471C91.942,472.489 79.534,474.698 78,480.395C75.667,489.062 78.667,514.399 79,523C79.117,526.016 78.833,529.833 80,532C81.14,534.116 86.5,535.333 86,536C85.714,536.382 83.551,536.735 81.327,536.563C79.667,536.434 77.974,534.745 77,535C75.624,535.361 73.096,535.54 71.25,536.563C69.696,537.424 68.8,539.157 67.734,539.37C67.458,539.425 69.211,536.455 69,536.455C67.669,536.455 62.833,536.576 63,536C63.167,535.424 69.714,535.522 70,533Z" style="fill:rgb(181,141,110);stroke:black;stroke-width:0.9px;"/>
                        </g>
                        <g transform="matrix(0.995557,0.0941641,-0.0941641,0.995557,155.519,11.0425)">
                            <ellipse cx="10.5" cy="473.5" rx="2.5" ry="1.5" style="fill:rgb(160,186,45);"/>
                        </g>
                        <g transform="matrix(0.995557,0.0941641,-0.0941641,0.995557,161.05,16.278)">
                            <ellipse cx="10.5" cy="473.5" rx="2.5" ry="1.5" style="fill:rgb(160,186,45);"/>
                        </g>
                    </g>
                    <g transform="matrix(1.02245,0,0,1.06974,14.6687,-43.1686)">
                        <g transform="matrix(1.04545,0,0,1.34444,165.41,125.112)">
                            <path d="M17,290L10,299L14,300L8,305L13,306L6,311L13,312L5,316L14,318L20.933,318.22L27,316L20,312L27,311L19,306L24,305L19,300L23,298L17,290Z" style="fill:rgb(50,58,49);stroke:black;stroke-width:0.79px;"/>
                        </g>
                        <g transform="matrix(1,0,0,1,165.637,234.72)">
                            <path d="M14,321L20,321L19,318.22L15,318.22L14,321Z" style="fill:rgb(100,74,54);stroke:black;stroke-width:0.96px;"/>
                        </g>
                    </g>
                    <g transform="matrix(1.1323,0,0,1.18467,-21.0437,-102.763)">
                        <g transform="matrix(1,0,0,1,-1.92474,3)">
                            <path d="M206.83,503.593C206.83,501.61 208.25,500 210,500C211.75,500 213.17,501.61 213.17,503.593C214.045,501.875 215.985,501.286 217.5,502.278C219.015,503.269 219.535,505.468 218.66,507.185C220.175,506.194 222.116,506.783 222.99,508.5C223.865,510.217 223.345,512.416 221.83,513.407C223.58,513.407 225,515.017 225,517C225,518.983 223.58,520.593 221.83,520.593C223.345,521.584 223.865,523.783 222.99,525.5C222.116,527.217 220.175,527.806 218.66,526.815C219.535,528.532 219.015,530.731 217.5,531.722C215.985,532.714 214.045,532.125 213.17,530.407C213.17,532.39 211.75,534 210,534C208.25,534 206.83,532.39 206.83,530.407C205.955,532.125 204.015,532.714 202.5,531.722C200.985,530.731 200.465,528.532 201.34,526.815C199.825,527.806 197.884,527.217 197.01,525.5C196.135,523.783 196.655,521.584 198.17,520.593C196.42,520.593 195,518.983 195,517C195,515.017 196.42,513.407 198.17,513.407C196.655,512.416 196.135,510.217 197.01,508.5C197.884,506.783 199.825,506.194 201.34,507.185C200.465,505.468 200.985,503.269 202.5,502.278C204.015,501.286 205.955,501.875 206.83,503.593Z" style="fill:rgb(129,151,29);stroke:black;stroke-width:0.86px;"/>
                        </g>
                        <g transform="matrix(0.588234,0,0,0.782549,191.912,136.582)">
                            <path d="M39.4,530C39.9,529.5 33.543,529.293 33,527C32.709,525.774 32.466,523.88 32.295,521.651C31.841,515.7 31.909,507.365 33,503C34.213,498.149 39.5,493.833 42,491C43.722,489.048 47.833,486.833 48,486C48.167,485.167 44.514,485.303 43,486C40.267,487.259 34.767,494.389 31.6,493.556C28.433,492.722 25.333,478.767 24,481C23.625,481.628 30.469,497.826 26.828,499.103C21.919,500.825 6.294,487.965 6.971,491.629C7.576,494.909 26.83,501.962 27,504.395C27.455,510.914 27.783,519.353 27,524C26.473,527.129 21.8,531.278 22.3,532.278C22.8,533.278 27.347,530.353 30,530C32.85,529.62 38.9,530.5 39.4,530Z" style="fill:rgb(181,141,110);stroke:black;stroke-width:0.62px;"/>
                        </g>
                    </g>
                    <g transform="matrix(1.07527,0,0,1.125,-8.32158,-72.75)">
                        <g transform="matrix(0.633328,0.0897095,-0.0918418,0.648381,193.643,252.369)">
                            <ellipse cx="10.5" cy="473.5" rx="2.5" ry="1.5" style="fill:rgb(53,66,19);"/>
                        </g>
                        <g transform="matrix(0.633328,0.0897095,-0.0918418,0.648381,200.716,251.056)">
                            <ellipse cx="10.5" cy="473.5" rx="2.5" ry="1.5" style="fill:rgb(53,66,19);"/>
                        </g>
                        <g transform="matrix(0.633328,0.0897095,-0.0918418,0.648381,198.756,254.35)">
                            <ellipse cx="10.5" cy="473.5" rx="2.5" ry="1.5" style="fill:rgb(53,66,19);"/>
                        </g>
                    </g>
                    <g transform="matrix(0.962422,-0.501702,0.479523,1.00694,-206.811,69.7581)">
                        <g transform="matrix(0.633328,0.0897095,-0.0918418,0.648381,193.643,252.369)">
                            <ellipse cx="10.5" cy="473.5" rx="2.5" ry="1.5" style="fill:rgb(53,66,19);"/>
                        </g>
                        <g transform="matrix(0.633328,0.0897095,-0.0918418,0.648381,198.756,254.35)">
                            <ellipse cx="10.5" cy="473.5" rx="2.5" ry="1.5" style="fill:rgb(53,66,19);"/>
                        </g>
                    </g>
                </g>
            </g>
        </g>
    </g>
</svg>
