<?xml version="1.0" encoding="UTF-8" standalone="no"?>
<!DOCTYPE svg PUBLIC "-//W3C//DTD SVG 1.1//EN" "http://www.w3.org/Graphics/SVG/1.1/DTD/svg11.dtd">
<svg width="100%" height="100%" viewBox="0 0 90 150" version="1.1" xmlns="http://www.w3.org/2000/svg" xmlns:xlink="http://www.w3.org/1999/xlink" xml:space="preserve" xmlns:serif="http://www.serif.com/" style="fill-rule:evenodd;clip-rule:evenodd;stroke-linecap:round;stroke-linejoin:round;stroke-miterlimit:1.5;">
    <g transform="matrix(1,0,0,1,-411,-178)">
        <g id="Plan-Wall" serif:id="Plan Wall" transform="matrix(1.71797,0,0,0.636946,-16.7132,87.794)">
            <rect x="9.728" y="140.756" width="654.842" height="235.499" style="fill:none;"/>
            <g id="Ebene1">
            </g>
            <g id="middle">
            </g>
            <g id="Disover" transform="matrix(0.582081,0,0,1.56999,181.783,-126.843)">
                <g id="Men">
                    <g transform="matrix(0.959893,0,0,1,4.46031,-0.0446218)">
                        <path d="M146.898,224.193C146.898,224.193 148.606,224.509 150.455,224.465C151.323,224.444 152.197,224.708 153.03,223.978C155.035,222.22 161.099,229.252 160.794,232.123C160.49,234.994 151.656,241.14 151.202,241.203C150.748,241.266 157.764,235.371 158.068,232.5C158.373,229.63 154.892,225.363 153.03,223.978C151.388,222.758 146.898,224.193 146.898,224.193Z" style="fill:rgb(115,60,26);stroke:black;stroke-width:0.51px;"/>
                    </g>
                    <g transform="matrix(1,0,0,1,-2.17671,-3.41156)">
                        <path d="M155.274,256.016C155.168,254.735 159.855,259.2 161.138,261.566C162.511,264.098 163.115,268.626 163.511,271.208C163.806,273.136 163.82,276.005 163.511,277.058C163.331,277.67 161.794,278.149 161.655,277.526C161.364,276.225 162.554,271.896 161.769,269.252C160.706,265.667 155.379,257.297 155.274,256.016Z" style="fill:rgb(115,60,26);stroke:black;stroke-width:0.5px;"/>
                    </g>
                    <g transform="matrix(1,0,0,1,1.77593,-1.41474)">
                        <path d="M139.188,240.016C138.718,240.813 137.601,244.314 136.958,245.986C136.435,247.347 135.048,248.971 135.333,250.048C135.617,251.125 137.297,252.454 138.666,252.448C140.33,252.441 144.343,250.655 145.317,250.004C145.78,249.694 145.066,248.492 144.512,248.541C143.501,248.629 140.561,249.899 139.252,250.535C138.443,250.928 137.864,250.025 137.869,249.03C137.88,246.752 139.833,242.37 139.775,241.204C139.753,240.763 139.412,239.636 139.188,240.016Z" style="fill:rgb(115,60,26);stroke:black;stroke-width:0.5px;"/>
                    </g>
                    <g transform="matrix(1,0,0,1,-0.503288,-3.46766)">
                        <path d="M149.066,256.913C148.704,258.411 148.598,263.198 148.739,266.339C148.887,269.637 149.434,274.995 149.956,276.699C150.144,277.311 151.806,277.198 151.872,276.561C152.056,274.779 151.226,269.207 151.065,266.005C150.92,263.122 151.24,258.863 150.907,257.348C150.771,256.732 149.213,256.3 149.066,256.913Z" style="fill:rgb(115,60,26);stroke:black;stroke-width:0.5px;"/>
                    </g>
                    <g transform="matrix(1,0,0,1,0,-2.30916)">
                        <path d="M140.2,239.468C140.836,237.457 147.239,236.264 149.214,237.107C151.189,237.95 151.642,241.909 152.048,244.524C152.521,247.568 153.157,254.594 152.048,255.37C150.94,256.145 147.207,251.606 145.397,249.177C143.422,246.527 139.563,241.48 140.2,239.468Z" style="fill:rgb(115,60,26);stroke:black;stroke-width:0.5px;"/>
                    </g>
                    <g transform="matrix(1,0,0,1,1.84527,-0.0487865)">
                        <path d="M138.317,224.411C138.006,226.105 139.974,232.688 141.146,233.664C142.319,234.641 145.043,231.962 145.355,230.268C145.666,228.573 144.188,224.475 143.015,223.499C141.842,222.522 138.606,222.842 138.317,224.411Z" style="fill:rgb(115,60,26);stroke:black;stroke-width:0.5px;"/>
                    </g>
                </g>
                <g id="taurus">
                    <g transform="matrix(1,0,0,1,-0.150566,-0.764683)">
                        <path d="M178.675,249.797C178.521,249.22 178.291,247.058 178.604,246.38C178.892,245.758 179.878,245.831 180.556,245.728C181.67,245.559 184.384,245.169 185.29,245.365C185.842,245.485 186.025,246.344 185.991,246.908C185.95,247.6 185.307,249.102 185.045,249.513C184.929,249.694 184.504,249.571 184.415,249.375C184.257,249.027 184.56,247.715 184.097,247.424C183.633,247.133 182.346,247.536 181.634,247.631C181.025,247.712 180.177,247.625 179.826,247.993C179.475,248.361 179.719,249.54 179.527,249.841C179.374,250.081 178.748,250.072 178.675,249.797Z" style="fill:rgb(115,60,26);stroke:black;stroke-width:0.2px;"/>
                    </g>
                    <g transform="matrix(0.991857,-0.127354,0.127354,0.991857,-29.3216,24.8293)">
                        <path d="M173.853,241.464C173.999,241.747 174.829,243.276 175.242,243.587C175.541,243.813 175.971,243.417 176.335,243.334C177.006,243.18 178.673,243.067 179.269,242.666C179.782,242.321 179.813,241.34 179.912,240.927C179.969,240.688 179.996,239.984 179.861,240.19C179.722,240.402 179.587,241.761 179.075,242.199C178.563,242.637 177.557,242.613 176.788,242.817C175.433,243.175 175.245,243.104 174.368,241.888C174.238,241.708 173.751,241.266 173.853,241.464Z" style="fill:rgb(115,60,26);stroke:black;stroke-width:0.2px;"/>
                    </g>
                    <path d="M176.352,243.836C176.537,244.229 177.269,245.605 177.786,245.717C178.303,245.83 179.254,244.99 179.453,244.513C179.651,244.037 179.439,243.051 178.976,242.858C178.514,242.666 177.115,243.196 176.678,243.359C176.498,243.426 176.27,243.662 176.352,243.836Z" style="fill:rgb(115,60,26);stroke:black;stroke-width:0.2px;"/>
                </g>
                <g id="Mountains">
                    <path d="M162.944,229.836C164.556,226.907 167.779,221.048 169.379,219.856C170.513,219.011 171.797,221.719 172.542,222.684C173.201,223.539 173.633,224.944 173.848,225.647" style="fill:none;stroke:rgb(115,60,26);stroke-width:1px;"/>
                    <g transform="matrix(1,0,0,1,6.16833,3.05222)">
                        <path d="M162.944,229.836C164.556,226.907 167.779,221.048 169.379,219.856C170.513,219.011 171.726,221.529 172.542,222.684C173.525,224.078 174.696,226.84 175.281,228.221" style="fill:none;stroke:rgb(115,60,26);stroke-width:1px;"/>
                    </g>
                </g>
            </g>
            <g id="Right">
            </g>
            <g id="Left">
            </g>
        </g>
    </g>
</svg>
