<?xml version="1.0" encoding="UTF-8" standalone="no"?>
<!DOCTYPE svg PUBLIC "-//W3C//DTD SVG 1.1//EN" "http://www.w3.org/Graphics/SVG/1.1/DTD/svg11.dtd">
<svg width="100%" height="100%" viewBox="0 0 41 40" version="1.1" xmlns="http://www.w3.org/2000/svg" xmlns:xlink="http://www.w3.org/1999/xlink" xml:space="preserve" xmlns:serif="http://www.serif.com/" style="fill-rule:evenodd;clip-rule:evenodd;stroke-linejoin:round;stroke-miterlimit:2;">
    <g transform="matrix(1,0,0,1,-637,-109)">
        <g id="Ebene1">
        </g>
        <g id="Points" transform="matrix(1.41196,0,0,0.714286,-328.937,54.7143)">
            <rect x="580" y="76" width="344" height="56" style="fill:none;"/>
            <clipPath id="_clip1">
                <rect x="580" y="76" width="344" height="56"/>
            </clipPath>
            <g clip-path="url(#_clip1)">
                <g id="hand" transform="matrix(0.708235,0,0,1.4,169.224,-30.4)">
                    <g transform="matrix(0.310078,0,0,0.327869,433.977,86.1639)">
                        <g transform="matrix(3.225,0,0,3.05,-1109.32,-363.45)">
                            <path d="M660,149C664,147.833 671,142.833 674,141C675.422,140.131 677.673,139.634 678,138C678.5,135.5 677.903,129.911 677,126C676.672,124.578 675.218,120.833 674.692,119.048C674.027,116.792 674.865,114.995 673.783,114.347C673.112,113.945 672.472,112.6 672,112C670.764,110.427 667.988,111.398 666,111C663.5,110.5 660.061,108.722 657,109C653.333,109.333 646.833,111.333 644,113C641.928,114.219 641.167,117.333 640,119C639.044,120.365 637.166,121.342 637,123C636.833,124.667 638.833,127 639,129C639.167,131 637.833,133.5 638,135C638.133,136.194 639.463,136.925 640,138C640.833,139.667 641.333,143.333 643,145C644.667,146.667 647.529,147.419 650,148C652.833,148.667 656.784,149.938 660,149Z" style="fill:url(#_Radial2);"/>
                        </g>
                        <g transform="matrix(-1,0,0,1,1880.11,-240)">
                            <path d="M896,327C898.5,323.5 893.667,314.167 893,310C892.575,307.346 891.833,304.5 892,302C892.161,299.579 893.853,297.422 894,295C894.333,289.5 891.935,277.417 894,269C896.167,260.167 905.167,247.167 907,242C907.499,240.595 906.167,238.5 905,238C903.833,237.5 901.039,237.655 900,239C897.167,242.667 890.333,256.667 888,260C887.573,260.611 885.961,259.744 886,259C886.167,255.833 888,246.667 889,241C889.943,235.656 892.667,227.833 892,225C891.46,222.706 886.139,221.936 885,224C883.722,226.316 883.061,232.154 881.458,238.157C879.716,244.68 878.042,252.396 877,255C876.629,255.928 873.541,255.263 873,254C872,251.667 871.5,245.333 871,241C870.502,236.683 870.333,231.5 870,228C869.745,225.325 870,221.667 869,220C868.076,218.461 865.333,217.667 864,218C862.667,218.333 861,220.333 861,222C861,228.167 864.333,249.333 864,255C863.9,256.697 859.975,257.392 859,256C856.667,252.667 852,240 850,235C848.826,232.064 848.5,227.167 847,226C845.5,224.833 841.833,226.333 841,228C840.167,229.667 841.312,233.402 842,236C843.5,241.667 848.333,255.5 850,262C851.089,266.247 853.167,271.5 852,275C850.833,278.5 846.833,282.333 843,283C839.167,283.667 833.167,280 829,279C825.376,278.13 820.5,276.333 818,277C815.677,277.619 812.234,281.37 814,283C816.167,285 825.667,286.667 831,289C836.192,291.271 841,294.5 846,297C850.935,299.468 857.833,301.5 861,304C863.34,305.847 864.333,309.833 865,312C865.49,313.593 864.889,315.337 865,317C865.167,319.5 863.833,324.667 866,327C868.167,329.333 873.784,331 878,331C883,331 893.5,330.5 896,327Z" style="fill:rgb(250,245,241);"/>
                        </g>
                    </g>
                </g>
            </g>
        </g>
    </g>
    <defs>
        <radialGradient id="_Radial2" cx="0" cy="0" r="1" gradientUnits="userSpaceOnUse" gradientTransform="matrix(30,-31,31,30,655,149)"><stop offset="0" style="stop-color:rgb(252,221,202);stop-opacity:1"/><stop offset="1" style="stop-color:rgb(115,60,26);stop-opacity:1"/></radialGradient>
    </defs>
</svg>
