<?xml version="1.0" encoding="UTF-8" standalone="no"?>
<!DOCTYPE svg PUBLIC "-//W3C//DTD SVG 1.1//EN" "http://www.w3.org/Graphics/SVG/1.1/DTD/svg11.dtd">
<svg width="100%" height="100%" viewBox="0 0 90 150" version="1.1" xmlns="http://www.w3.org/2000/svg" xmlns:xlink="http://www.w3.org/1999/xlink" xml:space="preserve" xmlns:serif="http://www.serif.com/" style="fill-rule:evenodd;clip-rule:evenodd;stroke-linecap:round;stroke-linejoin:round;stroke-miterlimit:1.5;">
    <g transform="matrix(1,0,0,1,-519,-178)">
        <g id="Plan-Wall" serif:id="Plan Wall" transform="matrix(1.71797,0,0,0.636946,-16.7132,87.794)">
            <rect x="9.728" y="140.756" width="654.842" height="235.499" style="fill:none;"/>
            <g id="Walking" transform="matrix(0.582081,0,0,1.56999,248.46,-126.843)">
                <g transform="matrix(1,0,0,1,-2.17671,-3.41156)">
                    <path d="M155.274,256.016C155.168,254.735 159.538,259.402 161.138,261.566C163.011,264.098 165.115,268.793 166.511,271.208C167.462,272.854 169.32,275.172 169.511,276.058C169.645,276.682 168.134,276.947 167.655,276.526C166.364,275.391 163.381,271.922 161.769,269.252C159.706,265.834 155.379,257.297 155.274,256.016Z" style="fill:rgb(115,60,26);stroke:black;stroke-width:0.5px;"/>
                </g>
                <g transform="matrix(0.832373,0.554216,-0.554216,0.832373,164.442,-38.784)">
                    <path d="M139.188,240.016C138.718,240.813 137.601,244.314 136.958,245.986C136.435,247.347 135.048,248.971 135.333,250.048C135.617,251.125 137.329,252.393 138.666,252.448C140.003,252.503 142.706,250.967 143.353,250.378C143.764,250.003 143.103,248.893 142.547,248.915C141.863,248.941 140.561,249.899 139.252,250.535C138.443,250.928 137.864,250.025 137.869,249.03C137.88,246.752 139.833,242.37 139.775,241.204C139.753,240.763 139.412,239.636 139.188,240.016Z" style="fill:rgb(115,60,26);stroke:black;stroke-width:0.5px;"/>
                </g>
                <g transform="matrix(0.673307,-0.739363,0.739363,0.673307,-119.551,179.606)">
                    <path d="M139.188,240.016C138.718,240.813 137.601,244.314 136.958,245.986C136.435,247.347 135.048,248.971 135.333,250.048C135.617,251.125 137.297,252.454 138.666,252.448C140.33,252.441 144.343,250.655 145.317,250.004C145.78,249.694 145.066,248.492 144.512,248.541C143.501,248.629 140.561,249.899 139.252,250.535C138.443,250.928 137.864,250.025 137.869,249.03C137.88,246.752 139.833,242.37 139.775,241.204C139.753,240.763 139.412,239.636 139.188,240.016Z" style="fill:rgb(115,60,26);stroke:black;stroke-width:0.5px;"/>
                </g>
                <g transform="matrix(1,0,0,1,-0.503288,-3.46766)">
                    <path d="M149.066,256.913C148.704,258.411 149.924,263.875 148.739,266.339C147.554,268.803 142.934,270.328 141.956,271.699C141.374,272.514 142.022,275.092 142.872,274.561C144.39,273.612 149.726,268.874 151.065,266.005C152.286,263.389 151.24,258.863 150.907,257.348C150.771,256.732 149.213,256.3 149.066,256.913Z" style="fill:rgb(115,60,26);stroke:black;stroke-width:0.5px;"/>
                </g>
                <g transform="matrix(0.896412,0.443221,-0.443221,0.896412,128.202,-42.0895)">
                    <path d="M140.2,239.468C140.836,237.457 147.239,236.264 149.214,237.107C151.189,237.95 151.642,241.909 152.048,244.524C152.521,247.568 153.157,254.594 152.048,255.37C150.94,256.145 147.207,251.606 145.397,249.177C143.422,246.527 139.563,241.48 140.2,239.468Z" style="fill:rgb(115,60,26);stroke:black;stroke-width:0.5px;"/>
                </g>
                <g transform="matrix(0.982357,0.187014,-0.187014,0.982357,58.9455,-22.171)">
                    <path d="M138.317,224.411C138.006,226.105 139.974,232.688 141.146,233.664C142.319,234.641 145.043,231.962 145.355,230.268C145.666,228.573 144.188,224.475 143.015,223.499C141.842,222.522 138.606,222.842 138.317,224.411Z" style="fill:rgb(115,60,26);stroke:black;stroke-width:0.5px;"/>
                </g>
            </g>
            <g id="Disover">
            </g>
            <g id="Right">
            </g>
            <g id="middle">
            </g>
            <g id="Left">
            </g>
        </g>
    </g>
</svg>
