<?xml version="1.0" encoding="UTF-8" standalone="no"?>
<!DOCTYPE svg PUBLIC "-//W3C//DTD SVG 1.1//EN" "http://www.w3.org/Graphics/SVG/1.1/DTD/svg11.dtd">
<svg width="100%" height="100%" viewBox="0 0 159 31" version="1.1" xmlns="http://www.w3.org/2000/svg" xmlns:xlink="http://www.w3.org/1999/xlink" xml:space="preserve" xmlns:serif="http://www.serif.com/" style="fill-rule:evenodd;clip-rule:evenodd;stroke-linecap:round;stroke-linejoin:round;stroke-miterlimit:1.5;">
    <g transform="matrix(1,0,0,1,0,-66)">
        <g id="Button" transform="matrix(0.411917,0,0,0.461538,-131.402,-18.4314)">
            <rect x="319" y="185" width="386" height="65" style="fill:none;"/>
            <g id="shadows" transform="matrix(2.42767,0,0,2.16667,319,185)">
                <g transform="matrix(-1,0,0,1,300,0)">
                    <path d="M150.229,27.386C148.338,26.882 145.548,25.714 144.159,24.215C143.366,23.36 145.704,21.396 145.229,20.386C144.737,19.34 142.245,18.999 142.903,16.564C143.562,14.13 141.178,11.384 142.229,9.386C142.65,8.586 143.956,9.372 144.446,8.198C144.827,7.285 144.477,4.542 145.066,3.746C147.157,0.924 150.734,1.467 153.229,1.386C160.36,1.155 183.582,0.654 199.357,0.69C204.504,0.702 209.547,1.712 214.455,1.719C218.708,1.725 222.859,0.732 226.887,0.741C234.163,0.757 242.04,-0.223 247.397,0.802C260.247,3.259 271.364,0.92 279,1C285.146,1.065 293.667,1.667 297,5C297.782,5.782 295.64,8.424 296.758,9.139C297.504,9.616 298.869,12.526 299.06,12.602C300.367,13.119 298.266,15.641 298.381,17C298.575,19.29 299.31,22.634 299,24C298.319,26.997 295.314,24.58 292,27C288.925,29.246 284.055,28.969 280,29C274.765,29.04 267.834,29.076 259.614,29.106C253.668,29.128 247.047,28.882 239.906,28.381C238.072,28.253 236.204,27.173 234.304,27.177C226.676,27.194 218.536,29.235 210.054,29.294C179.9,29.504 174.967,29.578 160.385,29.47C152.69,29.414 155.229,28.719 150.229,27.386Z" style="fill:rgb(227,234,246);stroke:black;stroke-width:0.5px;"/>
                </g>
                <path d="M1.083,23.771L2.763,23.918L5.491,24.514L11.887,26.241L14.364,27.677L25.765,27.426L31.863,27.81L39.948,26.926L47.923,26.713L54.414,27.324L60.353,27.11L63.552,26.246L72.197,26.222L85.693,28.058L110.309,26.942L129.264,28.119L133.773,26.73L136.402,27.887L138.566,28.584L144.282,28.047L147.255,27.337L149.628,27.044L148.785,27.883L145.229,29.015L134.443,29.701L88.933,29.037L66.179,27.17L61.237,28.199L43.861,28.873L16.494,28.867L13.073,28.794L9.799,27.951L6.675,26.287L2.763,25.636L1.363,24.626L1.083,23.771Z" style="fill:rgb(183,198,222);"/>
                <g transform="matrix(1,0,0,1,-141.193,-0.572687)">
                    <path d="M297.048,20.029L292.065,19.202L285.043,20.276L290.313,21.511L292.839,23.063L297.126,24.303L296.364,22.365L295.823,21L297.048,20.029Z" style="fill:rgb(156,174,202);"/>
                </g>
                <path d="M7,5L13.755,6L10,7.975L3.519,9L2.763,5.128L7,5Z" style="fill:rgb(156,174,202);"/>
                <path d="M0.51,13.975L10.837,15L27,16L18.574,16.646L14.707,17.709L13,19L1,21L1.752,16.447L0.51,13.975Z" style="fill:rgb(183,198,222);"/>
                <g transform="matrix(1,0,0,1,-141.095,-0.630714)">
                    <path d="M299.138,12.246L294.807,12.889L296.377,16.137L298.361,17.753L298.313,15.075L299.138,12.246Z" style="fill:rgb(183,198,222);"/>
                </g>
            </g>
            <g transform="matrix(-2.42767,0,0,2.16667,1047.3,185)">
                <path d="M150.229,27.386C148.338,26.882 145.548,25.714 144.159,24.215C143.366,23.36 145.704,21.396 145.229,20.386C144.737,19.34 142.245,18.999 142.903,16.564C143.562,14.13 141.178,11.384 142.229,9.386C142.65,8.586 143.956,9.372 144.446,8.198C144.827,7.285 144.477,4.542 145.066,3.746C147.157,0.924 150.734,1.467 153.229,1.386C160.36,1.155 183.582,0.654 199.357,0.69C204.504,0.702 209.547,1.712 214.455,1.719C218.708,1.725 222.859,0.732 226.887,0.741C234.163,0.757 242.04,-0.223 247.397,0.802C260.247,3.259 271.364,0.92 279,1C285.146,1.065 293.667,1.667 297,5C297.782,5.782 295.64,8.424 296.758,9.139C297.504,9.616 298.869,12.526 299.06,12.602C300.367,13.119 298.266,15.641 298.381,17C298.575,19.29 299.31,22.634 299,24C298.319,26.997 295.314,24.58 292,27C288.925,29.246 284.055,28.969 280,29C274.765,29.04 267.834,29.076 259.614,29.106C253.668,29.128 247.047,28.882 239.906,28.381C238.072,28.253 236.204,27.173 234.304,27.177C226.676,27.194 218.536,29.235 210.054,29.294C179.9,29.504 174.967,29.578 160.385,29.47C152.69,29.414 155.229,28.719 150.229,27.386Z" style="fill:none;stroke:black;stroke-width:0.5px;"/>
            </g>
        </g>
    </g>
</svg>
