<?xml version="1.0" encoding="UTF-8" standalone="no"?>
<!DOCTYPE svg PUBLIC "-//W3C//DTD SVG 1.1//EN" "http://www.w3.org/Graphics/SVG/1.1/DTD/svg11.dtd">
<svg width="100%" height="100%" viewBox="0 0 300 30" version="1.1" xmlns="http://www.w3.org/2000/svg" xmlns:xlink="http://www.w3.org/1999/xlink" xml:space="preserve" xmlns:serif="http://www.serif.com/" style="fill-rule:evenodd;clip-rule:evenodd;stroke-linecap:round;stroke-linejoin:round;stroke-miterlimit:1.5;">
    <g id="Card-Title" serif:id="Card Title" transform="matrix(0.777202,0,0,0.461538,-247.927,-85.3846)">
        <rect x="319" y="185" width="386" height="65" style="fill:none;"/>
        <g transform="matrix(-1.28667,0,0,2.16667,705,185)">
            <path d="M9,28C7.109,27.496 4.319,26.329 2.93,24.829C2.137,23.974 4.475,22.01 4,21C3.508,19.954 1.016,19.613 1.674,17.178C2.333,14.744 -0.051,11.998 1,10C1.421,9.2 2.726,9.986 3.216,8.812C3.598,7.899 3.247,5.156 3.837,4.36C5.927,1.538 9.505,2.081 12,2C19.131,1.769 29.265,1.567 41.483,1.394C43.281,1.368 46.123,2.344 48.007,2.319C49.418,2.301 49.853,1.284 51.31,1.266C72.774,1.01 99.101,0.833 126.358,0.739C131.392,0.721 138.458,1.707 143.53,1.695C146.353,1.689 147.177,0.683 150,0.678C166.828,0.65 183.582,0.654 199.357,0.69C204.504,0.702 209.547,1.712 214.455,1.719C218.708,1.725 222.859,0.732 226.887,0.741C234.163,0.757 242.04,-0.223 247.397,0.802C260.247,3.259 271.364,0.92 279,1C285.146,1.065 293.667,1.667 297,5C297.782,5.782 295.64,8.424 296.758,9.139C297.504,9.616 298.869,12.526 299.06,12.602C300.367,13.119 298.266,15.641 298.381,17C298.575,19.29 299.31,22.634 299,24C298.319,26.997 295.314,24.58 292,27C288.925,29.246 284.055,28.969 280,29C274.765,29.04 267.834,29.076 259.614,29.106C253.668,29.128 247.047,28.882 239.906,28.381C238.072,28.253 236.204,27.173 234.304,27.177C226.676,27.194 218.536,29.235 210.054,29.294C179.9,29.504 145.414,29.501 114.169,29.416C112.471,29.411 110.783,28.406 109.105,28.401C107.305,28.395 105.518,29.39 103.744,29.384C73.083,29.28 46.582,29.108 32,29C24.305,28.943 14,29.333 9,28Z" style="fill:rgb(227,234,246);stroke:black;stroke-width:0.5px;"/>
        </g>
        <g transform="matrix(1.28667,0,0,2.16667,319,185)">
            <path d="M253.307,2.423L255.199,3.452L259.241,3.661L261.685,1.389L258.15,1.249L253.307,2.423Z" style="fill:rgb(242,247,255);"/>
        </g>
        <g id="shadows" transform="matrix(1.28667,0,0,2.16667,319,185)">
            <path d="M1.083,23.771L2.763,23.918L5.491,24.514L11.887,26.241L14.364,27.677L25.765,27.426L31.863,27.81L39.948,26.926L47.923,26.713L54.414,27.324L60.353,27.11L63.552,26.246L72.197,26.222L85.693,28.058L98.169,27.688L104.262,26.818L105.819,27.645L110.309,27.98L129.264,28.119L133.773,26.73L136.402,27.887L149.581,28.267L157.488,27.75L162.801,28.051L184.611,28.173L188.804,27.069L190.92,27.67L194.896,27.929L198.04,28.141L220.614,27.834L242.119,28.076L263.043,27.779L277.631,27.962L283.504,27.738L289.22,27.201L292.193,26.491L294.566,26.198L293.722,27.037L290.167,28.169L279.381,28.855L261.434,28.837L248.384,29.026L196.021,29.47L190.917,28.21L186.333,29.246L145.039,29.47L88.933,29.037L66.179,27.17L61.237,28.199L43.861,28.873L16.494,28.867L13.073,28.794L9.799,27.951L6.675,26.287L2.763,25.636L1.363,24.626L1.083,23.771Z" style="fill:rgb(183,198,222);"/>
            <path d="M299.138,12.246L294.807,12.889L296.377,16.137L298.361,17.753L298.313,15.075L299.138,12.246Z" style="fill:rgb(183,198,222);"/>
            <path d="M297.048,20.029L292.065,19.202L285.043,20.276L290.313,21.511L292.839,23.063L297.126,24.303L296.364,22.365L295.823,21L297.048,20.029Z" style="fill:rgb(156,174,202);"/>
            <path d="M7,5L13.755,6L10,7.975L3.519,9L2.763,5.128L7,5Z" style="fill:rgb(156,174,202);"/>
            <path d="M0.51,13.975L10.837,15L27,16L18.574,16.646L14.707,17.709L13,19L1,21L1.752,16.447L0.51,13.975Z" style="fill:rgb(183,198,222);"/>
            <path d="M5.985,3.168L16.35,2.604L22.183,0.882L12.153,1.596L5.985,3.168Z" style="fill:rgb(242,247,255);"/>
            <path d="M87.307,1.77L96.404,3.254L105.377,2.673L113.084,1.779L116.152,0.55L99.232,0.604L87.307,1.77Z" style="fill:rgb(242,247,255);"/>
            <g transform="matrix(1,0,0,1,69.2126,0.735045)">
                <path d="M87.057,1.167L96.404,3.254L109.935,2.519L111.859,1.167L121.349,0.205L102.217,0.122L87.057,1.167Z" style="fill:rgb(242,247,255);"/>
            </g>
        </g>
        <g transform="matrix(-1.28667,0,0,2.16667,705,185)">
            <path d="M9,28C7.109,27.496 4.319,26.329 2.93,24.829C2.137,23.974 4.475,22.01 4,21C3.508,19.954 1.016,19.613 1.674,17.178C2.333,14.744 -0.051,11.998 1,10C1.421,9.2 2.726,9.986 3.216,8.812C3.598,7.899 3.247,5.156 3.837,4.36C5.927,1.538 9.505,2.081 12,2C19.131,1.769 29.265,1.567 41.483,1.394C43.281,1.368 46.123,2.344 48.007,2.319C49.418,2.301 49.853,1.284 51.31,1.266C72.774,1.01 99.101,0.833 126.358,0.739C131.392,0.721 138.458,1.707 143.53,1.695C146.353,1.689 147.177,0.683 150,0.678C166.828,0.65 183.582,0.654 199.357,0.69C204.504,0.702 209.547,1.712 214.455,1.719C218.708,1.725 222.859,0.732 226.887,0.741C234.163,0.757 242.04,-0.223 247.397,0.802C260.247,3.259 271.364,0.92 279,1C285.146,1.065 293.667,1.667 297,5C297.782,5.782 295.64,8.424 296.758,9.139C297.504,9.616 298.869,12.526 299.06,12.602C300.367,13.119 298.266,15.641 298.381,17C298.575,19.29 299.31,22.634 299,24C298.319,26.997 295.314,24.58 292,27C288.925,29.246 284.055,28.969 280,29C274.765,29.04 267.834,29.076 259.614,29.106C253.668,29.128 247.047,28.882 239.906,28.381C238.072,28.253 236.204,27.173 234.304,27.177C226.676,27.194 218.536,29.235 210.054,29.294C179.9,29.504 145.414,29.501 114.169,29.416C112.471,29.411 110.783,28.406 109.105,28.401C107.305,28.395 105.518,29.39 103.744,29.384C73.083,29.28 46.582,29.108 32,29C24.305,28.943 14,29.333 9,28Z" style="fill:none;stroke:black;stroke-width:0.5px;"/>
        </g>
    </g>
</svg>
