<?xml version="1.0" encoding="UTF-8" standalone="no"?>
<!DOCTYPE svg PUBLIC "-//W3C//DTD SVG 1.1//EN" "http://www.w3.org/Graphics/SVG/1.1/DTD/svg11.dtd">
<svg width="100%" height="100%" viewBox="0 0 51 51" version="1.1" xmlns="http://www.w3.org/2000/svg" xmlns:xlink="http://www.w3.org/1999/xlink" xml:space="preserve" xmlns:serif="http://www.serif.com/" style="fill-rule:evenodd;clip-rule:evenodd;stroke-linejoin:round;stroke-miterlimit:2;">
    <g transform="matrix(1,0,0,1,-107,-56)">
        <g id="human_token" transform="matrix(0.528708,0,0,0.546961,-26.2867,-72.053)">
            <rect x="252.71" y="234.938" width="94.57" height="91.414" style="fill:none;"/>
            <g id="Ebene1" transform="matrix(1.8914,0,0,1.82828,254.205,233.528)">
                <g transform="matrix(0.716191,0,0,0.690929,-81.3876,-31.5524)">
                    <path d="M140.604,76.553C139.77,77.702 139.934,80.925 140,83C140.065,85.027 140.5,87.667 141,89C141.331,89.883 142.333,91 143,91C143.667,91 144.411,89.736 145,89C145.667,88.167 146.761,87.178 147,86C147.399,84.035 147.73,78.86 147.396,77.211C147.222,76.348 145.876,76.19 145,76.105C143.868,75.996 141.437,75.404 140.604,76.553Z" style="fill:rgb(115,60,26);"/>
                </g>
                <g transform="matrix(1,0,0,1,-108.113,-55.6779)">
                    <path d="M118,99C118,98 119.555,94.087 121,92C122.5,89.833 125.333,87 127,86C128.143,85.314 129.807,85.404 131,86C132.667,86.833 135.667,89.333 137,91C138.121,92.402 138.5,94.5 139,96C139.435,97.304 140.333,99.333 140,100C139.667,100.667 137.625,100.781 137,100C136.333,99.167 136.631,96.578 136,95C135.333,93.333 134,91 133,90C132.255,89.255 131.046,88.869 130,89C128.667,89.167 126.167,90.333 125,91C124.181,91.468 123.468,92.181 123,93C122.333,94.167 121.833,97 121,98C120.325,98.81 118,100 118,99Z" style="fill:rgb(115,60,26);"/>
                </g>
                <g transform="matrix(1,0,0,-1,-107.113,108.4)">
                    <path d="M119,97C119,96.333 119.944,93.452 121,92C122.333,90.167 125.333,87 127,86C128.143,85.314 129.807,85.404 131,86C132.667,86.833 135.667,89.333 137,91C138.121,92.402 138.5,94.833 139,96C139.294,96.685 140.167,97.667 140,98C139.833,98.333 138.471,98.471 138,98C137.5,97.5 137.471,95.943 137,95C136.333,93.667 135.333,91.167 134,90C132.667,88.833 130.5,88 129,88C127.509,88 126,89.167 125,90C124.077,90.769 123.667,92 123,93C122.333,94 121.667,95.333 121,96C120.473,96.527 119,97.667 119,97Z" style="fill:rgb(115,60,26);"/>
                </g>
                <g transform="matrix(1,0,0,1,-108.113,-55.6779)">
                    <path d="M129,69C128.5,69.5 128,71.167 128,72C128,72.745 128.5,73.5 129,74C129.5,74.5 130.5,75.167 131,75C131.5,74.833 131.667,73.667 132,73C132.333,72.333 133.167,71.667 133,71C132.833,70.333 131.667,69.333 131,69C130.404,68.702 129.471,68.529 129,69Z" style="fill:rgb(115,60,26);"/>
                </g>
            </g>
        </g>
    </g>
</svg>
