<?xml version="1.0" encoding="UTF-8" standalone="no"?>
<!DOCTYPE svg PUBLIC "-//W3C//DTD SVG 1.1//EN" "http://www.w3.org/Graphics/SVG/1.1/DTD/svg11.dtd">
<svg width="100%" height="100%" viewBox="0 0 51 50" version="1.1" xmlns="http://www.w3.org/2000/svg" xmlns:xlink="http://www.w3.org/1999/xlink" xml:space="preserve" xmlns:serif="http://www.serif.com/" style="fill-rule:evenodd;clip-rule:evenodd;stroke-linecap:round;stroke-linejoin:round;stroke-miterlimit:1.5;">
    <g transform="matrix(1,0,0,1,-53,0)">
        <g id="human_token" transform="matrix(0.528708,0,0,0.546961,-80.2867,-128.502)">
            <rect x="252.71" y="234.938" width="94.57" height="91.414" style="fill:none;"/>
            <g id="Ebene1" transform="matrix(1.8914,0,0,1.82828,253.265,235.036)">
                <g transform="matrix(1.35234,0,0,1.6011,-10.6094,-1.05289)">
                    <ellipse cx="26.115" cy="16.047" rx="16.638" ry="14.053" style="fill:rgb(71,36,14);stroke:rgb(156,86,43);stroke-width:1.35px;"/>
                </g>
                <g transform="matrix(0.709452,0,0,0.733946,-185.242,-181.573)">
                    <g transform="matrix(1.68453,0,0,1.42949,257.316,242.435)">
                        <path d="M19.972,12.39C19.407,12.97 19.005,14.732 19.093,15.587C19.175,16.38 19.872,17.084 20.501,17.52C21.13,17.956 22.321,18.462 22.868,18.204C23.415,17.945 23.834,16.772 23.784,15.969C23.72,14.953 23.121,12.704 22.486,12.107C21.871,11.53 20.538,11.81 19.972,12.39Z" style="fill:rgb(215,140,93);"/>
                    </g>
                    <g transform="matrix(1.8914,0,0,1.82828,252.71,234.938)">
                        <path d="M18.806,19.711C19.469,18.49 24.241,18.445 25,19.748C25.759,21.05 24.023,26.306 23.36,27.528C22.982,28.225 21.421,27.763 21.022,27.077C20.263,25.774 18.143,20.933 18.806,19.711Z" style="fill:rgb(215,140,93);"/>
                    </g>
                    <g transform="matrix(1.52825,0,0,1.79079,261.162,235.978)">
                        <path d="M23.288,28.217C23.606,29.111 25.513,30.53 26.619,32.653C27.48,34.305 27.526,36.734 28.085,37.406C28.698,38.143 30.867,38.397 30.96,37.443C31.054,36.474 29.694,33.187 28.651,31.593C27.66,30.079 25.593,28.437 24.699,27.874C24.29,27.616 23.126,27.761 23.288,28.217Z" style="fill:rgb(215,140,93);"/>
                    </g>
                    <g transform="matrix(-1.52825,0,0,1.79079,330.244,236.211)">
                        <path d="M23.288,28.217C23.606,29.111 23.64,30.652 24.746,32.775C25.607,34.427 24.899,36.987 25.459,37.659C26.071,38.396 27.407,38.628 27.616,37.934C27.892,37.011 27.634,33.824 27.119,32.126C26.626,30.502 25.161,28.398 24.522,27.747C24.214,27.433 23.126,27.761 23.288,28.217Z" style="fill:rgb(215,140,93);"/>
                    </g>
                    <g transform="matrix(1.8914,0,0,1.82828,252.71,234.938)">
                        <path d="M18.164,20.195C17.753,20.371 16.716,21.956 16.209,22.685C15.796,23.281 15.116,23.961 15.125,24.572C15.134,25.183 15.85,26.441 16.265,26.349C16.679,26.257 17.209,24.805 17.612,24.018C18.009,23.241 18.587,22.264 18.679,21.627C18.752,21.125 18.576,20.018 18.164,20.195Z" style="fill:rgb(215,140,93);"/>
                    </g>
                    <g transform="matrix(1.5326,-1.07141,-1.1084,-1.48145,305.596,327.791)">
                        <path d="M18.164,20.195C17.753,20.371 16.716,21.956 16.209,22.685C15.796,23.281 15.116,23.961 15.125,24.572C15.134,25.183 15.85,26.441 16.265,26.349C16.679,26.257 17.209,24.805 17.612,24.018C18.009,23.241 18.587,22.264 18.679,21.627C18.752,21.125 18.576,20.018 18.164,20.195Z" style="fill:rgb(215,140,93);"/>
                    </g>
                </g>
            </g>
        </g>
    </g>
</svg>
