<?xml version="1.0" encoding="UTF-8" standalone="no"?>
<!DOCTYPE svg PUBLIC "-//W3C//DTD SVG 1.1//EN" "http://www.w3.org/Graphics/SVG/1.1/DTD/svg11.dtd">
<svg width="100%" height="100%" viewBox="0 0 50 50" version="1.1" xmlns="http://www.w3.org/2000/svg" xmlns:xlink="http://www.w3.org/1999/xlink" xml:space="preserve" xmlns:serif="http://www.serif.com/" style="fill-rule:evenodd;clip-rule:evenodd;stroke-linecap:round;stroke-linejoin:round;stroke-miterlimit:1.5;">
    <g transform="matrix(1,0,0,1,-231,0)">
        <g id="sun_token" transform="matrix(0.528708,0,0,0.546961,97.7133,-128.502)">
            <rect x="252.71" y="234.938" width="94.57" height="91.414" style="fill:none;"/>
            <g transform="matrix(1.23954,-0.0235746,0.0251476,1.16201,-15.5896,253.701)">
                <path d="M255,29C253.574,29.681 250.722,28.044 250,27C248.5,24.833 250.833,22.833 252,22C253.167,21.167 255.667,21.5 257,22C258.324,22.497 258.667,23.333 260,25C261.062,26.327 260.333,30.167 259,32C257.667,33.833 254.333,36.167 252,36C249.667,35.833 246.5,32.667 245,31C243.799,29.666 242.727,27.774 243,26C243.333,23.833 244.995,19.762 247,18C249.005,16.238 252.24,15.099 255.032,15.427C257.865,15.761 262.172,17.405 264,20C265.828,22.595 266.5,27.667 266,31C265.5,34.333 264.13,38.592 261,40C259.333,40.75 256.385,42.573 253.468,42.51C250.551,42.448 247.667,40.5 246,40C243.506,39.252 241.835,35.751 241,34" style="fill:none;stroke:rgb(115,60,26);stroke-width:3.87px;"/>
            </g>
            <g transform="matrix(1.51681,0,0,2.18736,-87.4501,229.486)">
                <path d="M255,13C254.667,11.667 254.667,5 255,5C255.333,5 257,11.667 257,13C257,13.667 255.162,13.647 255,13Z" style="fill:none;stroke:rgb(115,60,26);stroke-width:2.45px;"/>
            </g>
            <g transform="matrix(0.494848,0.445444,-0.935039,0.970569,206.334,134.072)">
                <path d="M255,13C254.667,11.667 254.667,5 255,5C255.333,5 257,11.667 257,13C257,13.667 255.162,13.647 255,13Z" style="fill:none;stroke:rgb(115,60,26);stroke-width:4.37px;"/>
            </g>
            <g transform="matrix(-0.494848,-0.445444,0.935039,-0.970569,396.326,427.375)">
                <path d="M255,13C254.667,11.667 254.667,5 255,5C255.333,5 257,11.667 257,13C257,13.667 255.162,13.647 255,13Z" style="fill:none;stroke:rgb(115,60,26);stroke-width:4.37px;"/>
            </g>
            <g transform="matrix(0.861819,-0.400066,0.646128,0.670691,55.1168,356.979)">
                <path d="M255,13C254.667,11.667 254.667,5 255,5C255.333,5 257,11.667 257,13C257,13.667 255.162,13.647 255,13Z" style="fill:none;stroke:rgb(115,60,26);stroke-width:4.36px;"/>
            </g>
            <g transform="matrix(-0.360856,0.167513,-0.71495,-0.742129,419.256,265.178)">
                <path d="M255,13C254.667,11.667 254.667,5 255,5C255.333,5 257,11.667 257,13C257,13.667 255.162,13.647 255,13Z" style="fill:none;stroke:rgb(115,60,26);stroke-width:5.44px;"/>
            </g>
            <g transform="matrix(9.35444e-17,-1.42194,2.31945,1.33937e-16,243.582,644.223)">
                <path d="M255,13C254.667,11.667 254.667,5 255,5C255.333,5 257,11.667 257,13C257,13.667 255.162,13.647 255,13Z" style="fill:none;stroke:rgb(115,60,26);stroke-width:2.43px;"/>
            </g>
            <g transform="matrix(-2.93635e-16,1.42194,-2.54216,-4.26579e-16,355.827,-83.4538)">
                <path d="M255,13C254.667,11.667 254.667,5 255,5C255.333,5 257,11.667 257,13C257,13.667 255.162,13.647 255,13Z" style="fill:none;stroke:rgb(115,60,26);stroke-width:1.82px;"/>
            </g>
            <g transform="matrix(-1.51681,1.74137e-16,-2.29502e-16,-1.7568,688.779,328.724)">
                <path d="M255,13C254.667,11.667 254.667,5 255,5C255.333,5 257,11.667 257,13C257,13.667 255.162,13.647 255,13Z" style="fill:none;stroke:rgb(115,60,26);stroke-width:3.39px;"/>
            </g>
        </g>
    </g>
</svg>
