<?xml version="1.0" encoding="UTF-8" standalone="no"?>
<!DOCTYPE svg PUBLIC "-//W3C//DTD SVG 1.1//EN" "http://www.w3.org/Graphics/SVG/1.1/DTD/svg11.dtd">
<svg width="100%" height="100%" viewBox="0 0 112 150" version="1.1" xmlns="http://www.w3.org/2000/svg" xmlns:xlink="http://www.w3.org/1999/xlink" xml:space="preserve" xmlns:serif="http://www.serif.com/" style="fill-rule:evenodd;clip-rule:evenodd;stroke-linecap:round;stroke-linejoin:round;stroke-miterlimit:1.5;">
    <g transform="matrix(1,0,0,1,0,-177)">
        <g id="Plan-Wall" serif:id="Plan Wall" transform="matrix(1.71797,0,0,0.636946,-16.7132,87.794)">
            <rect x="9.728" y="140.756" width="654.842" height="235.499" style="fill:none;"/>
            <clipPath id="_clip1">
                <rect x="9.728" y="140.756" width="654.842" height="235.499"/>
            </clipPath>
            <g clip-path="url(#_clip1)">
                <g id="Disover">
                </g>
                <g id="Right">
                </g>
                <g id="middle">
                </g>
                <g id="Left" transform="matrix(0.582081,0,0,1.56999,9.72843,-137.836)">
                    <path d="M112,177.917L76.473,184.26L43.944,178.824L15.818,180.63L10.013,194.082L1.085,201.406L4.923,239.834L1.945,271.025L8.102,286.743L3.945,297.3L0.705,314.984L10.633,326.448L45.103,322.345L69.289,326.85L95.228,322.772L112,327.448L112,177.917Z" style="fill:rgb(244,232,222);"/>
                    <g transform="matrix(1,0,0,1,-11.5308,7.68782)">
                        <path d="M22.995,240.536L34.653,246.523L52.489,241.908L56.543,234.968L39.792,234.207L22.995,240.536Z" style="fill:rgb(250,245,241);"/>
                    </g>
                    <g transform="matrix(-1,0,0,1,131.634,19.2421)">
                        <path d="M24.533,236.585L34.653,246.523L52.489,241.908L56.543,234.968L41.187,238.612L24.533,236.585Z" style="fill:rgb(250,245,241);"/>
                    </g>
                    <g transform="matrix(-1.46965,0,0,0.611461,106.461,143.053)">
                        <path d="M24.533,236.585L34.653,246.523L52.489,241.908L56.543,234.968L41.187,238.612L24.533,236.585Z" style="fill:rgb(250,245,241);"/>
                    </g>
                    <path d="M11.769,302.142L32.179,300.305L59.83,306.797L82.958,306.912L102.417,304.966L112,308.761L112,327.448L95.229,322.888L68.985,326.438L45.042,321.949L10.909,326.448L1.085,314.921L3.934,296.895L11.769,302.142Z" style="fill:rgb(250,245,241);"/>
                    <path d="M16.07,180.701L43.976,178.817L76.257,183.983L112,178.158L112,188.885L88.155,186.717L75.246,191.593L52.377,183.095L43.343,182.943L22.067,188.94L15.376,198.698L1.085,201.406L9.928,193.471L16.07,180.701Z" style="fill:rgb(239,220,205);"/>
                    <path d="M112,177.917L76.473,184.26L43.944,178.824L15.818,180.63L10.013,194.082L1.085,201.406L4.923,239.834L1.945,271.025L8.102,286.743L3.945,297.3L0.705,314.984L10.633,326.448L45.103,322.345L69.289,326.85L95.228,322.772L112,327.448L113.009,327.448L113,177.917L112,177.917Z" style="fill:none;stroke:black;stroke-width:0.5px;"/>
                </g>
            </g>
        </g>
    </g>
</svg>
