<?xml version="1.0" encoding="UTF-8" standalone="no"?>
<!DOCTYPE svg PUBLIC "-//W3C//DTD SVG 1.1//EN" "http://www.w3.org/Graphics/SVG/1.1/DTD/svg11.dtd">
<svg width="100%" height="100%" viewBox="0 0 90 151" version="1.1" xmlns="http://www.w3.org/2000/svg" xmlns:xlink="http://www.w3.org/1999/xlink" xml:space="preserve" xmlns:serif="http://www.serif.com/" style="fill-rule:evenodd;clip-rule:evenodd;stroke-linecap:round;stroke-linejoin:round;stroke-miterlimit:1.5;">
    <g transform="matrix(1,0,0,1,-118,-178)">
        <g id="Plan-Wall" serif:id="Plan Wall" transform="matrix(1.71797,0,0,0.636946,-16.7132,87.794)">
            <rect x="9.728" y="140.756" width="654.842" height="235.499" style="fill:none;"/>
            <clipPath id="_clip1">
                <rect x="9.728" y="140.756" width="654.842" height="235.499"/>
            </clipPath>
            <g clip-path="url(#_clip1)">
                <g id="Ebene1">
                </g>
                <g id="middle" transform="matrix(0.582081,0,0,1.56999,9.72843,-137.836)">
                    <path d="M118.365,177.917L146.476,180.735L163.365,177.917L169.644,181.223L191.336,177.917L199.213,180.196L208.584,177.448L208.657,327.151L191.922,323.742L176.667,326.339L154.977,327.034L139.14,323.049L130.895,326.468L118.365,327.448L118.365,177.917Z" style="fill:rgb(244,232,222);"/>
                    <path d="M118.365,188.918L139.368,190.386L157.068,189.998L166.838,193.396L177.217,191.264L192.854,188.307L198.446,190.665L208.657,187.751L208.365,177.448L199.236,180.303L191.301,178.019L169.836,180.994L163.365,178.054L146.684,180.679L118.365,177.99L118.365,188.918Z" style="fill:rgb(239,220,205);"/>
                    <path d="M118.642,327.1L118.365,309.586L129.031,307.444L136.832,305.369L139.516,308.619L146.509,307.585L153.639,307.728L173.465,309.551L187.862,308.817L196.519,307.452L201.117,308.853L208.657,309.266L208.657,327.187L192.081,323.607L176.604,326.125L154.992,326.86L138.93,323.067L130.934,326.379L118.642,327.1Z" style="fill:rgb(250,245,241);"/>
                    <g transform="matrix(-0.957303,0,0,0.611461,222.022,138.257)">
                        <path d="M24.533,236.585L34.653,246.523L52.489,241.908L56.543,234.968L41.187,238.612L24.533,236.585Z" style="fill:rgb(250,245,241);"/>
                    </g>
                    <g transform="matrix(-0.426236,0,0,0.611461,158.397,146.886)">
                        <path d="M24.533,236.585L34.653,246.523L52.489,241.908L56.543,234.968L41.187,238.612L24.533,236.585Z" style="fill:rgb(250,245,241);"/>
                    </g>
                    <path d="M118.365,177.917L146.476,180.735L163.365,177.917L169.644,181.223L191.336,177.917L199.213,180.196L208.584,177.448L208.657,327.151L191.922,323.742L176.667,326.339L154.977,327.034L139.14,323.049L130.895,326.468L118.365,327.448L118.365,177.917Z" style="fill:none;stroke:black;stroke-width:0.5px;"/>
                </g>
                <g id="Disover">
                </g>
                <g id="Right">
                </g>
                <g id="Left">
                </g>
            </g>
        </g>
    </g>
</svg>
